<svg width="67" height="88" viewBox="0 0 67 88" fill="none" xmlns="http://www.w3.org/2000/svg">
<path d="M33.823 55.2739C45.9996 55.2739 55.8706 45.4029 55.8706 33.2263C55.8706 21.0498 45.9996 11.1787 33.823 11.1787C21.6464 11.1787 11.7754 21.0498 11.7754 33.2263C11.7754 45.4029 21.6464 55.2739 33.823 55.2739Z" fill="#292D32"/>
<path d="M33.8251 41.8246C38.574 41.8246 42.4237 37.9749 42.4237 33.226C42.4237 28.4772 38.574 24.6274 33.8251 24.6274C29.0763 24.6274 25.2266 28.4772 25.2266 33.226C25.2266 37.9749 29.0763 41.8246 33.8251 41.8246Z" fill="white"/>
<path d="M35.8898 55.1637L35.8911 85.6977C35.8911 86.8276 34.9541 87.7647 33.8241 87.7647C32.6942 87.7647 31.7572 86.8276 31.7572 85.6977L31.7559 55.1637H31.7834C32.4448 55.2464 33.1338 55.2739 33.8228 55.2739C34.5118 55.2739 35.2008 55.2464 35.8622 55.1637H35.8898Z" fill="#121217"/>
</svg>
