<svg width="325" height="256" viewBox="0 0 325 256" fill="none" xmlns="http://www.w3.org/2000/svg">
<path opacity="0.96" d="M0 0H0.016068C0.0114772 0.00459087 0.00459087 0.0114772 0 0.016068V0Z" fill="#212529"/>
<path opacity="0.96" d="M217.392 41.9727C218.87 41.8704 220.351 41.7437 221.838 41.7482C223.481 42.6686 224.477 44.3761 225.645 45.8056C228.07 49.5341 230.242 53.4292 232.341 57.3489C234.851 62.538 236.756 67.985 239.073 73.2586C243.755 84.1971 248.655 95.0422 253.289 106.005C254.99 109.84 256.508 113.762 258.44 117.493C259.074 118.813 259.683 120.165 260.686 121.259C262.153 122.435 263.8 123.353 265.383 124.36C266.644 125.105 267.922 126.028 269.465 125.986C275.017 126.11 280.573 126.197 286.124 126.384C292.02 127.033 298.061 127.473 303.632 129.681C306.809 131.073 309.686 133.051 312.519 135.037C315.518 137.089 318.035 139.745 320.487 142.405C322.466 144.497 323.915 147.138 324.404 149.99C324.567 150.882 324.745 151.785 325 152.658C324.789 152.627 324.58 152.596 324.378 152.567C324.642 155.046 324.876 157.609 324.149 160.042C322.89 163.99 320.807 167.652 318.397 170.998C316.523 172.774 314.193 173.997 311.916 175.187C309.726 176.332 307.219 176.541 304.846 177.085C306.214 178.49 308.008 179.442 309.264 180.967C312.815 185.047 314.102 190.836 313.017 196.092C312.405 199.669 310.771 202.949 309.028 206.092C310.367 208.382 311.819 210.73 312.243 213.394C313.359 219.083 311.836 225.132 308.524 229.841C306.18 233.078 303.381 236.171 299.679 237.85C294.726 240.813 288.674 241.449 283.052 240.506C280.748 240.022 278.827 241.598 276.771 242.296C271.624 243.859 266.037 243.559 260.93 241.98C259.214 241.425 257.593 240.586 255.83 240.186C255.187 240.053 254.861 240.789 254.58 241.238C252.933 244.748 249.06 246.954 245.223 246.925C240.487 247.167 235.949 245.164 232.081 242.598C229.54 241.056 227.483 238.892 225.22 236.998C220.918 232.556 217.056 227.576 214.506 221.913C212.163 217.487 210.844 212.455 211.18 207.426C211.015 203.582 213.119 199.716 216.378 197.715C218.094 196.666 220.286 196.859 221.938 195.696C221.309 191.75 220.722 187.724 221.289 183.733C221.814 177.599 224.288 171.707 227.932 166.778C230.46 163.577 233.793 161.142 237.154 158.886C238.339 158.136 238.482 156.593 239.026 155.424C239.853 152.947 241.187 150.684 242.057 148.225C242.835 145.911 243.969 143.685 244.169 141.211C244.364 138.498 244.822 135.681 244.06 133.016C243.242 129.923 240.594 127.904 238.528 125.646C233.662 120.005 228.086 115.038 222.979 109.627C219.744 106.047 216.158 102.808 212.852 99.2998C209.395 95.3557 205.695 91.6272 201.833 88.0811C200.108 86.467 198.601 84.6439 196.929 82.9809C194.817 80.9022 193.129 78.4588 191.306 76.1377C189.459 73.8589 187.804 71.3999 186.535 68.7565C185.548 66.6399 187.046 64.8768 187.909 63.1005C189.661 63.2227 191.586 62.9226 193.198 63.8075C194.383 64.321 195.312 65.2326 196.302 66.0374C206.078 74.2546 215.478 82.9009 225.189 91.1893C228.003 93.5326 230.34 96.454 233.45 98.4305C232.877 96.3183 231.923 94.333 231.229 92.2631C229.34 86.7494 227.239 81.3113 225.464 75.7598C222.612 67.1646 219.564 58.6339 216.825 50.0032C216.505 48.9938 216.198 47.9667 216.173 46.8973C215.987 45.1609 216.78 43.5423 217.392 41.9727ZM219.862 45.0141C219.766 47.8466 220.173 50.6701 221.249 53.2981C223.973 62.7514 227.328 72.0024 230.369 81.3535C232.541 87.3697 234.764 93.3681 237.041 99.3464C237.677 101.098 238.042 103.117 239.84 104.093C244.58 107.588 249.262 111.159 253.773 114.949C253.011 112.484 251.717 110.227 250.801 107.819C248.7 102.944 246.643 98.0503 244.542 93.1769C241.705 86.6894 239.607 79.8861 236.298 73.6076C233.424 68.2562 231.719 62.3757 228.895 57.0042C227.194 53.5582 224.953 50.4167 223.057 47.0818C222.432 45.8723 221.036 45.461 219.862 45.0141ZM190.212 66.442C189.986 67.1112 189.712 67.8093 189.83 68.5319C190.039 69.3945 190.555 70.1371 191.057 70.8508C194.932 76.2889 199.032 81.647 204.103 86.0313C206.969 88.588 209.157 91.7873 211.842 94.5219C213.632 96.5095 215.595 98.3282 217.53 100.176C224.373 107.117 231.327 113.949 238.179 120.879C241.023 124.178 244.284 127.075 247.248 130.261C249.273 132.667 251.397 135.008 253.776 137.071C254.703 137.967 255.966 137.111 257.002 136.96C261.348 135.692 265.881 136.284 270.321 136.468C270.248 134.685 270.515 132.733 269.465 131.164C269.101 130.268 268.049 130.117 267.255 129.794C264.79 129.074 262.553 127.698 260.721 125.908C257.546 123.389 254.916 120.276 251.772 117.726C248.051 114.478 244.227 111.35 240.496 108.115C238.74 106.557 236.645 105.456 234.811 104.006C230.787 100.48 226.934 96.7741 223.034 93.1124C219.339 89.9954 215.864 86.6204 212.083 83.6035C208.174 80.0885 204.117 76.7491 200.124 73.3319C197.029 70.7485 193.954 68.0517 190.212 66.442ZM249.153 138.589C249.187 139.892 248.804 141.213 249.04 142.5C249.936 144.492 252.155 145.373 254.129 145.948C254.976 144.152 255.421 142.204 256.063 140.33C254.687 140.726 253.329 141.177 251.955 141.571C251.057 140.544 250.172 139.496 249.153 138.589ZM259.905 139.614C259.067 141.706 258.047 143.879 258.244 146.191C258.462 148.152 259.874 149.532 261.112 150.917C265.065 149.541 268.073 146.446 271.811 144.637C271.511 143.058 270.724 141.482 269.247 140.71C266.457 138.934 263.002 139.803 259.905 139.614ZM290.344 140.89C288.196 141.184 285.053 141.675 284.592 144.294C284.615 146.209 285.048 148.118 285.726 149.91C288.083 147.362 290.273 144.53 293.361 142.811C293.966 142.44 294.682 142.349 295.382 142.353C294.828 143.667 294.155 144.95 293.194 146.013C290.978 148.561 289.006 151.353 287.594 154.43C285.873 158.503 285.344 163.028 285.937 167.405C286.071 170.607 287.609 173.535 289.564 175.996C290.793 177.474 292.778 178.017 294.61 178.259C296.176 178.381 297.598 177.626 298.884 176.83C300.473 175.702 302.236 174.738 303.472 173.19C306.298 169.82 308.519 165.945 310.164 161.869C311.26 158.31 311.467 154.521 311.152 150.828C311.078 149.857 310.256 149.217 309.584 148.63C307.674 147.087 305.556 145.833 303.555 144.421C299.768 141.74 295.013 140.099 290.344 140.89ZM264.839 153.652C265.999 154.988 267.402 156.078 268.674 157.3C271.315 160.335 273.334 163.89 274.779 167.641C275.506 169.802 277.238 171.403 278.927 172.843C280.873 174.453 282.698 176.212 284.737 177.71C286.873 179.358 289.072 181.172 289.957 183.815C291.011 183.771 292.051 183.757 293.119 183.748C292.783 185.447 291.087 186.292 290.073 187.532C289.532 189.633 289.404 191.892 288.285 193.809C286.178 198.282 282.076 201.652 277.409 203.182C273.011 205.019 268.149 203.731 263.567 204.338C263.153 205.603 262.282 206.904 262.833 208.273C263.938 210.143 265.357 211.811 266.786 213.442C270.25 216.508 274.859 218.289 279.492 218.28C286.131 218.605 292.774 216.255 297.941 212.129C303.15 208.249 307.216 202.533 308.344 196.065C309.311 191.036 307.561 185.494 303.581 182.194C302.565 181.436 301.48 180.009 300.044 180.707C298.743 181.129 297.585 181.937 296.227 182.197C293.677 182.888 290.969 181.921 288.905 180.42C287.427 179.166 285.98 177.79 285.046 176.072C283.052 172.468 281.838 168.423 281.631 164.304C281.78 163.199 281.111 162.312 280.353 161.631C276.546 158.119 274.065 153.396 272.573 148.485C269.912 150.081 267.338 151.816 264.839 153.652ZM253.02 162.759C250.803 164.128 249.992 166.807 249.147 169.115C248.111 172.806 247.946 176.823 249.009 180.529C249.356 182.057 249.536 183.626 250.025 185.122C251.283 189.978 254.974 193.789 259.076 196.466C264.403 200.374 271.791 201.348 277.885 198.724C280.493 197.186 283.238 195.332 284.521 192.468C285.535 190.445 286.133 188.128 285.728 185.867C285.653 182.988 283.007 181.225 280.908 179.731C276.386 176.065 272.233 171.972 267.967 168.017C265.408 165.246 262.355 163.023 259.378 160.735C257.195 161.162 254.912 161.511 253.02 162.759ZM232.646 168.161C230.647 170.62 228.733 173.21 227.497 176.149C225.831 179.984 225 184.151 224.809 188.317C224.809 194.071 225.653 199.881 227.812 205.239C228.444 207.271 229.7 209.063 230.189 211.144C228.097 210.023 226.878 207.844 225.647 205.906C224.5 203.882 223.955 201.579 222.788 199.565C221.298 199.789 219.744 200.065 218.461 200.903C216.478 202.486 215.355 205.003 215.304 207.522C215.224 210.441 215.578 213.425 216.656 216.155C220.313 226.097 227.465 234.666 236.534 240.128C239.52 241.54 242.708 243.01 246.112 242.512C248.693 242.501 250.901 240.689 252.05 238.481C252.219 238.039 251.912 237.585 251.612 237.287C250.392 236.189 248.938 235.393 247.766 234.237C246.288 232.734 244.9 231.137 243.706 229.399C243.291 228.727 242.748 228.054 242.815 227.222C243.586 227.333 244.107 227.958 244.736 228.374C247.017 230.201 249.327 232.029 251.901 233.439C256.588 235.984 261.553 238.296 266.908 238.919C270.177 239.308 273.714 239.539 276.764 238.085C276.395 236.7 275.13 235.911 274.292 234.837C273.231 233.49 272.189 232.111 271.442 230.564C270.008 227.914 269.661 224.837 269.63 221.871C269.865 220.472 268.736 219.439 267.707 218.743C266.455 217.865 265.299 216.853 264.192 215.808C262.844 214.421 262.077 212.609 260.895 211.104C260.061 213.583 259.156 216.108 257.295 218.031C257.462 215.43 258.642 213.04 258.882 210.452C259.045 208.638 259.023 206.819 259.038 205.007C255.387 205.092 251.728 204.327 248.495 202.606C245.394 201.275 242.753 198.927 241.107 195.974C238.582 191.588 236.61 186.799 235.969 181.748C235.385 178.935 235.093 176.06 235.213 173.188C235.225 170.527 235.907 167.937 236.092 165.293C234.844 166.122 233.591 166.981 232.646 168.161ZM287.416 221.649C282.872 222.894 278.049 222.68 273.494 221.622C273.636 224.13 273.743 226.753 275.039 228.981C276.402 231.429 278.327 233.712 280.928 234.884C286.026 237.425 292.334 236.822 297.227 234.072C300.415 232.111 303.372 229.615 305.273 226.342C308.344 221.464 309.371 214.932 306.534 209.723C301.225 215.092 294.962 220.066 287.416 221.649Z" fill="#212529"/>
<path opacity="0.96" d="M109.316 87.3075C110.49 87.1452 111.819 87.4298 112.477 88.497C113.26 89.8443 113.76 91.6829 112.877 93.0925C112.228 94.2486 110.883 94.7021 109.68 95.0156C106.241 95.7359 102.859 96.7075 99.4511 97.5657C92.5101 99.1286 85.6246 100.923 78.6991 102.561C78.8481 104 79.0081 105.438 79.1616 106.877C81.8317 106.434 84.4374 105.705 87.072 105.105C95.6471 103.377 104.136 101.239 112.726 99.6022C113.509 99.1865 114.249 99.7 114.747 100.243C115.434 101.141 115.103 102.633 114.078 103.131C111.73 103.975 109.236 104.249 106.828 104.856C102.284 105.874 97.7036 106.732 93.1726 107.808C90.4002 108.271 87.7189 109.14 84.9487 109.598C83.2946 109.863 81.6783 110.321 80.022 110.576C80.2332 111.992 80.4755 113.404 80.7312 114.814C85.7758 113.942 90.7315 112.599 95.7783 111.721C98.4907 110.992 101.241 110.436 104.007 109.958C107.246 109.313 110.43 108.36 113.716 107.971C114.807 107.615 115.763 108.271 116.746 108.606C116.461 109.436 116.553 110.521 115.926 111.221C115.241 111.577 114.478 111.755 113.731 111.928C105.994 113.491 98.2906 115.203 90.5714 116.848C87.4944 117.54 84.3662 118.029 81.3359 118.905C81.5694 120.303 81.8273 121.699 82.0718 123.1C89.0818 121.555 96.1251 120.174 103.142 118.667C105.859 117.946 108.644 117.542 111.386 116.935C112.937 116.624 114.485 116.261 116.066 116.123C117.749 116.054 118.722 119.045 117.022 119.685C115.61 120.305 114.02 120.256 112.542 120.617C106.89 121.911 101.179 122.933 95.5226 124.203C91.2095 124.934 87.003 126.195 82.6654 126.788C82.8678 128.211 83.119 129.627 83.4124 131.037C85.9203 130.61 88.3948 130.001 90.9115 129.605C97.7859 128.036 104.774 126.993 111.657 125.45C113.471 125.105 115.27 124.674 117.099 124.421C117.913 124.263 118.676 124.834 119.091 125.49C119.107 126.008 119.14 127.042 119.158 127.56C118.349 128.32 117.151 128.374 116.132 128.614C110.31 129.681 104.491 130.77 98.7086 132.035C93.7907 132.958 88.8684 133.867 83.9861 134.961C84.1372 136.38 84.304 137.798 84.493 139.214C92.5212 137.722 100.492 135.935 108.544 134.563C112.304 133.829 116.055 133.007 119.874 132.638C120.261 133.721 121.299 135.21 120.11 136.108C118.26 136.866 116.212 136.973 114.265 137.387C104.636 139.397 94.9312 141.04 85.2956 143.018C85.4467 144.43 85.698 145.828 85.8803 147.238C88.8439 146.822 91.7942 146.3 94.7156 145.653C103.135 144.103 111.559 142.574 119.987 141.068C121.586 140.822 122.057 142.874 122.006 144.07C125.628 140.568 130.208 137.998 135.141 136.913C138.925 136.068 143.098 136.866 146.151 139.31C147.865 140.473 148.821 142.362 149.77 144.141C151.151 147.367 152.058 151.013 151.167 154.497C150.5 156.54 149.181 158.277 148.136 160.133C145.958 164.048 143.245 167.641 141.137 171.598C139.49 174.709 137.527 177.715 136.722 181.192C135.697 185.616 135.419 190.316 136.495 194.763C137.162 197.829 138.525 200.781 138.427 203.978C138.485 207.466 136.898 210.628 135.346 213.649C138.147 217.135 140.8 221.313 140.442 225.986C140.406 229.606 138.676 232.903 136.569 235.738C134.288 238.05 131.833 240.222 129.092 241.978C131.226 241.685 133.389 241.634 135.541 241.582C137.22 241.4 138.547 242.952 138.825 244.482C139.361 246.38 138.089 248.79 136.073 249.108C128.238 250.244 120.452 251.694 112.626 252.912C107.968 253.57 103.371 254.586 98.7041 255.18C95.2736 255.776 91.5096 254.96 88.8661 252.628C87.5744 251.26 86.3894 249.724 85.7825 247.921C84.5975 244.375 84.533 240.589 83.6481 236.971C81.6827 236.216 79.6774 235.544 77.8143 234.555C75.0752 233.17 72.8119 231.064 70.3463 229.277C68.9879 231.022 67.8562 233.023 65.982 234.286C63.4364 235.84 60.7306 237.22 57.8115 237.907C52.9447 239.264 47.7579 238.79 42.9067 237.638C37.7931 235.995 32.9798 233.381 28.8534 229.937C26.7991 228.149 25.0627 225.948 24.0289 223.418C23.2463 221.208 23.1151 218.643 24.1801 216.504C25.0338 214.734 26.7479 213.556 28.5288 212.844C32.733 211.113 37.3574 211.464 41.755 210.657C46.7596 209.785 51.693 208.482 56.4797 206.779C57.9026 206.444 59.0187 205.437 59.9947 204.407C55.875 200.583 51.7664 196.666 48.5093 192.059C47.0264 189.6 45.5946 187.026 45.2922 184.111C44.6342 179.306 46.1304 173.648 50.5303 171.036C52.6313 169.551 55.2792 169.133 57.7915 169.053C60.8529 169.48 63.7409 170.725 66.8024 171.165C64.1545 169.391 61.5021 167.579 58.663 166.129C55.2947 165.06 52.2978 163.177 49.183 161.56C45.6302 159.539 41.8195 157.988 38.4446 155.655C34.1448 152.823 29.5159 150.075 26.5745 145.72C25.0382 143.327 23.7688 140.575 24.04 137.651C24.0578 134.572 25.7497 131.58 28.3754 129.977C32.3261 127.409 37.3063 126.904 41.8929 127.469C47.8134 127.931 53.3294 130.412 58.5096 133.16C61.5488 134.616 64.3034 136.564 67.1715 138.316C65.6441 127.947 63.7187 117.642 62.1469 107.281C61.6377 104.289 61.9779 101.014 63.7943 98.4972C65.3817 95.9694 68.0897 94.2286 71.0177 93.7083C74.3459 93.1947 77.6609 92.6011 80.9691 91.9675C86.5161 91.3628 91.9565 90.0644 97.4791 89.2884C101.425 88.6392 105.356 87.8767 109.316 87.3075ZM37.9888 131.537C35.6855 131.864 33.1754 132.08 31.2434 133.509C29.6849 134.843 28.0263 136.726 28.4576 138.95C28.4532 140.915 29.8383 142.511 31.07 143.899C35.2631 148.636 40.7968 151.867 46.2305 154.975C52.5912 158.056 58.6986 161.623 64.9148 164.98C67.5472 166.429 70.0195 168.146 72.4806 169.866C71.5402 164.081 70.5597 158.303 69.6015 152.523C69.1813 149.955 68.89 147.34 68.1208 144.855C67.2337 143.861 65.9731 143.296 64.9326 142.494C60.4705 139.192 55.5793 136.522 50.5503 134.194C46.5595 132.598 42.3308 131.333 37.9888 131.537ZM122.844 149.632C123.013 150.582 123.093 151.538 123.222 152.5C122.12 153.114 120.875 153.368 119.69 153.752C118.674 155.033 118.469 156.776 117.96 158.301C119.992 158.07 122.013 157.734 124.054 157.583C124.599 158.69 125.232 160.438 123.925 161.247C122.046 161.974 120.001 162.176 118.022 162.492C117.722 164.01 117.377 165.518 116.999 167.021C118.756 166.789 120.494 166.46 122.246 166.191C123.202 166.187 124.35 165.469 125.17 166.305C126.482 166.916 126.177 168.701 125.423 169.635C122.051 170.409 118.558 170.569 115.225 171.512C113.567 172.41 112.199 173.926 110.303 174.329C108.633 174.553 106.959 174.173 105.374 173.668C103.558 173.001 101.657 173.624 99.8246 173.864C96.7921 174.426 93.7329 174.822 90.7137 175.456C90.9649 176.883 91.2028 178.31 91.3984 179.749C102.584 177.932 113.776 176.156 124.948 174.26C126.037 173.906 126.824 174.867 127.658 175.4C127.551 176.247 127.451 177.103 127.309 177.95C115.55 179.851 103.787 181.712 92.0387 183.673C92.2922 185.058 92.5368 186.445 92.7569 187.839C94.0953 187.51 95.447 187.224 96.8232 187.09C97.3123 186.016 97.9571 185.022 98.773 184.164C98.753 185.096 98.733 186.019 98.7219 186.959C105.058 185.672 111.497 185.02 117.866 183.935C121.295 183.475 124.676 182.681 128.134 182.432C128.429 183.482 129.323 184.627 128.518 185.647C128.314 186.376 127.355 186.25 126.853 186.492C117.704 188.031 108.491 189.144 99.3555 190.772C99.709 192.181 100.085 193.587 100.498 194.983C102.597 194.471 104.747 194.238 106.881 193.938C110.648 193.573 114.369 192.88 118.098 192.244C121.913 191.981 125.652 191.128 129.454 190.725C130.134 191.735 130.257 192.951 130.446 194.129C128.758 194.943 126.857 195.012 125.043 195.327C121.486 195.839 117.949 196.477 114.378 196.888C110.401 197.486 106.443 198.249 102.435 198.62C103.257 200.025 104.104 201.421 105.118 202.7C112.153 201.559 119.249 200.81 126.279 199.638C127.618 199.512 129.012 199.027 130.357 199.367C131.617 199.758 131.673 201.25 131.789 202.331C130.922 202.811 130.01 203.284 129.003 203.353C126.337 203.52 123.725 204.132 121.075 204.436C116.993 204.839 112.98 205.723 108.9 206.132C109.523 206.637 110.156 207.128 110.768 207.646C108.707 207.533 106.766 206.593 104.694 206.733C101.797 207.104 98.9087 207.551 96.0117 207.916C96.2541 209.289 96.4986 210.663 96.7321 212.042C100.48 211.488 104.249 211.121 107.988 210.515C112.551 210.161 117.037 209.196 121.588 208.72C125.19 208.342 128.767 207.524 132.404 207.624C132.625 208.251 132.871 208.869 133.129 209.487C133.656 207.944 134.094 206.357 134.243 204.732C134.319 202.164 133.267 199.774 132.613 197.344C131.869 194.127 131.244 190.827 131.497 187.513C131.782 182.908 132.525 178.195 134.737 174.086C136.404 171.016 137.765 167.77 139.766 164.893C142.078 161.004 144.708 157.305 146.838 153.312C147.278 148.905 145.07 144.028 140.953 142.078C139.328 141.237 137.416 141.42 135.655 141.475C130.539 142.52 126.342 145.92 122.844 149.632ZM99.4445 148.803C95.238 149.741 90.9871 150.477 86.734 151.151C86.8096 152.123 86.9141 153.103 87.2009 154.041C87.5077 154.904 88.5927 155.26 89.4308 154.993C97.4657 153.654 105.463 152.109 113.484 150.689C114.489 150.528 115.525 150.428 116.472 150.035C118.022 148.392 119.352 146.551 120.786 144.804C113.689 146.222 106.59 147.652 99.4445 148.803ZM106.61 155.909C101.832 156.585 97.1456 157.759 92.3745 158.466C93.6217 159.655 94.9268 160.789 96.3363 161.787C96.7032 162.063 97.1856 161.949 97.608 161.92C103.033 161.127 108.389 159.942 113.802 159.088C114.047 157.567 114.296 156.051 114.518 154.528C111.899 155.082 109.26 155.535 106.61 155.909ZM88.4815 161.38C88.5527 162.052 88.6371 162.752 88.7261 163.432C89.3419 163.312 89.9778 163.226 90.5958 163.099C89.92 162.492 89.1907 161.938 88.4815 161.38ZM100.916 165.433C102.433 166.509 103.855 167.728 105.47 168.664C105.867 168.906 106.35 168.937 106.801 168.85C108.638 168.537 110.474 168.208 112.306 167.852C113.013 166.369 113.491 164.793 113.818 163.186C109.529 164.004 105.218 164.695 100.916 165.433ZM89.3553 167.461C89.5798 168.864 89.8355 170.262 90.0712 171.665C93.2037 171.192 96.3297 170.658 99.44 170.062C97.9126 168.813 96.3363 167.621 94.7222 166.489C92.9436 166.865 91.1561 167.21 89.3553 167.461ZM58.1116 173.301C54.5277 173.161 51.195 175.598 49.9255 178.886C48.8139 181.51 49.6165 184.469 50.6903 186.975C51.3195 188.709 52.6824 190.005 53.8274 191.403C57.3779 195.112 60.8107 198.951 64.7214 202.295C67.6672 205.21 70.8109 207.913 73.9035 210.67C76.3825 212.851 80.0642 213.645 83.1457 212.306C86.5584 211.124 88.7505 207.426 88.4971 203.874C88.5082 198.458 85.4401 193.715 82.5054 189.405C80.0442 186.276 77.732 182.757 74.2037 180.743C72.0938 178.239 69.2769 176.405 66.2488 175.193C63.6765 174.117 60.933 173.217 58.1116 173.301ZM93.3527 191.563C93.7307 192.94 93.9708 194.349 94.1353 195.77C95.1246 195.634 96.1162 195.521 97.11 195.405C96.6898 194.031 96.3341 192.637 96.1918 191.203C95.2403 191.297 94.2931 191.388 93.3527 191.563ZM94.9312 199.907C95.1291 201.288 95.3381 202.666 95.5115 204.054C97.4769 203.722 99.4489 203.442 101.423 203.189C100.521 201.857 99.5956 200.541 98.6752 199.225C97.4279 199.454 96.174 199.654 94.9312 199.907ZM41.5638 215.112C37.5286 215.844 33.0042 215.148 29.4159 217.52C28.5643 218.274 27.3149 219.292 27.7351 220.575C28.5154 223.014 30.3207 224.93 32.1905 226.6C36.935 230.6 42.7177 233.503 48.9028 234.357C53.1604 234.71 57.5158 233.777 61.3176 231.838C65.2394 229.652 68.561 226.524 71.4379 223.107C74.1014 227.116 78.5124 229.379 82.7299 231.415C82.0807 226.916 81.3204 222.436 80.4444 217.976C77.9588 217.816 75.4487 217.255 73.301 215.955C69.7705 213.801 67.0736 210.592 63.8477 208.044C57.04 212.013 49.2319 213.703 41.5638 215.112ZM118.318 213.229C116.666 213.383 115.01 213.536 113.378 213.838C111.363 214.258 109.291 214.183 107.275 214.596C104.002 215.306 100.632 215.366 97.3635 216.095C97.6525 217.471 97.9349 218.841 98.195 220.228C99.2599 220.019 100.332 219.834 101.414 219.719C105.874 219.243 110.301 218.505 114.756 217.996C119.04 217.736 123.256 216.864 127.52 216.428C128.138 216.304 128.883 216.342 129.296 215.793C130.408 214.405 131.262 212.829 132.14 211.293C127.542 212.017 122.9 212.402 118.318 213.229ZM130.37 220.128C128.727 220.904 127.302 222.069 125.657 222.838C124.443 223.421 123.071 223.532 121.757 223.703C122.653 222.747 123.609 221.855 124.547 220.942C122.889 220.855 121.255 221.222 119.618 221.431C112.644 222.36 105.665 223.252 98.6819 224.119C98.9198 225.522 99.171 226.922 99.4089 228.327C110.81 227.038 122.171 225.404 133.574 224.163C135.01 223.95 135.815 225.468 136.06 226.649C136.019 225.415 136.066 224.174 135.879 222.958C135.553 221.64 134.846 220.464 134.116 219.336C132.887 219.694 131.6 219.788 130.37 220.128ZM133.047 228.176C127.331 228.783 121.635 229.55 115.923 230.199C113.869 230.471 111.766 230.56 109.78 231.211C108.349 232.945 106.848 234.659 104.92 235.889C113.958 234.735 123.027 233.89 132.071 232.807C132.991 232.952 133.547 232.234 133.974 231.584C134.854 230.095 135.69 228.539 136.022 226.822C135.199 227.571 134.228 228.241 133.047 228.176ZM100.027 232.145C100.065 232.483 100.107 232.825 100.151 233.17C102.201 232.743 104.229 232.207 106.161 231.387C104.109 231.584 102.07 231.891 100.027 232.145ZM121.526 237.963C114.772 238.863 107.98 239.435 101.23 240.38C102.53 242.407 104.651 244.586 107.29 244.035C109.981 243.881 112.644 243.448 115.334 243.281C117.415 243.032 119.578 243.063 121.559 242.281C124.209 240.976 126.602 239.199 128.785 237.22C126.362 237.445 123.956 237.827 121.526 237.963ZM130.092 245.684C129.712 245.642 129.654 246.247 130.068 246.211C130.455 246.267 130.488 245.649 130.092 245.684Z" fill="#212529"/>
<path opacity="0.96" d="M248.588 123.892C249.471 122.938 250.8 122.4 252.103 122.518C253.17 122.983 254.162 123.636 255.114 124.308C255.089 126.182 254.671 128.294 252.908 129.317C251.061 129.519 248.695 128.427 248.675 126.304C248.466 125.519 248.381 124.692 248.588 123.892Z" fill="#212529"/>
</svg>
