<svg width="274" height="256" viewBox="0 0 274 256" fill="none" xmlns="http://www.w3.org/2000/svg">
<g clip-path="url(#clip0_18_69)">
<path d="M181.447 255.632L180.363 255.535C180.238 255.336 180.04 255.194 179.811 255.141C179.582 255.088 179.341 255.127 179.14 255.249L178.068 255.171C177.993 254.968 177.895 254.923 177.763 255.129C171.763 254.893 165.759 254.581 159.755 254.428C137.386 253.853 115.017 253.981 92.6475 254.514C83.7541 254.728 74.8607 255.054 65.9672 255.317C64.4624 255.362 62.9576 255.43 61.5092 254.878C60.9901 254.679 60.2151 254.503 60.0458 254.127C59.0263 251.737 57.1227 252.487 55.2567 252.461C50.7266 252.417 46.2765 251.265 42.2965 249.106C38.0417 246.779 36.36 242.456 35.2352 238.042C33.6868 231.788 33.1647 225.324 33.689 218.903C34.1179 212.992 33.7341 207.032 34.7236 201.148C35.1449 198.645 35.4985 196.126 35.8522 193.608C35.9462 192.925 36.0779 192.415 35.0998 191.908C34.0163 191.353 33.8282 189.874 33.8959 188.579C34.321 180.77 35.1035 173.009 37.2817 165.461C37.6579 164.148 37.5902 163.709 36.0854 163.457C28.3732 162.155 21.0674 159.498 14.0851 156.121C9.28011 153.862 5.34716 150.098 2.88549 145.402C2.05408 143.811 1.21139 142.13 2.46414 140.317C2.87044 139.728 2.31742 139.413 2.02398 139.049C1.15872 137.972 0.376215 136.864 0.0940624 135.48C-0.342333 133.34 0.77499 132.057 2.95697 132.271C4.48811 132.421 5.6092 133.269 6.58357 134.399C7.95671 135.998 9.19065 137.735 10.8911 139.004C11.4667 138.673 11.2447 138.182 11.3049 137.791C11.6811 135.303 13.374 133.96 15.6877 134.879C23.2117 137.855 31.1684 138.336 39.0348 139.413C40.2726 139.582 41.5103 139.788 42.7404 140.006C45.3739 140.505 45.2949 140.49 46.3558 137.983C49.7642 129.933 55.8361 124.296 63.1645 119.875C72.4793 114.246 82.8663 111.709 93.4 109.645C95.5255 109.228 97.6548 108.489 99.7051 110.02C100.333 110.489 101.014 109.907 101.586 109.543C104.415 107.776 106.409 105.209 108.279 102.533C109.407 100.9 110.491 99.2191 111.604 97.5453C107.556 95.8528 105.081 92.5765 102.609 89.3227C101.913 88.407 101.421 87.8704 100.104 88.3282C97.7902 89.1314 96.0785 88.4746 94.7881 86.4143C94.2013 85.476 93.6595 85.3447 92.6551 85.6862C90.6687 86.3505 89.5062 85.3747 89.5965 83.2731C89.5653 82.9608 89.6092 82.6456 89.7244 82.3536C91.2895 79.8092 90.1684 78.034 88.656 75.7448C85.3492 70.7422 83.9422 65.0152 87.0459 59.4647C88.4529 56.9465 88.3137 55.0551 87.7983 52.4843C85.4583 40.7603 86.7788 29.4828 92.877 18.9972C93.6294 17.725 93.9868 16.7905 93.0651 15.3382C91.7484 13.2666 92.4331 11.3376 94.6339 10.0166C95.2622 9.64128 95.3186 9.22846 95.2584 8.63926C95.1042 7.1381 95.2057 5.73827 96.7971 4.95767C98.3884 4.17707 99.9835 4.60865 101.108 5.77205C102.105 6.79659 102.745 6.52263 103.798 5.98221C109.475 3.00241 115.686 1.72643 121.958 0.836991C131.032 -0.442746 140.188 -0.375194 149.029 1.87654C153.468 3.00241 157.859 2.9236 162.253 3.5053C163.791 3.71171 164.837 4.21835 164.438 5.97846C164.254 6.78908 164.611 6.75155 165.191 6.76657C168.674 6.85288 169.416 7.59596 169.363 11.0974C169.363 11.818 169.57 12.0356 170.202 12.2608C172.768 13.1878 173.588 14.7527 172.835 17.3422C172.593 18.1811 172.244 18.9857 171.797 19.7366C170.838 21.3353 169.212 22.6113 169.701 24.8518C169.788 25.2533 169.325 26.0002 168.893 26.2478C167.388 27.1298 167.501 28.2932 167.824 29.7568C168.08 30.9164 168.381 32.2562 167.301 33.2883C166.887 33.6636 167.087 34.0839 167.219 34.4892C168.509 38.4823 169.205 42.603 170.089 46.6899C170.567 48.8966 172.651 50.379 174.457 51.7788C175.036 52.2291 175.815 52.413 176.462 52.7921C178.234 53.8316 178.538 55.7569 176.902 56.9203C176.103 57.4645 175.423 58.1661 174.906 58.9819C174.388 59.7976 174.043 60.7103 173.892 61.6639C173.723 62.5083 173.463 63.4578 172.922 64.0808C170.386 67.0005 171.361 70.6221 170.819 73.9284C170.653 74.9454 171.47 75.7786 171.748 76.7318C174.419 85.9864 170.871 95.6239 162.501 101.782C158.882 104.447 154.838 106.211 150.519 107.442C150.657 107.972 150.901 108.469 151.237 108.903C151.572 109.337 151.992 109.699 152.471 109.967C155.857 112.088 159.243 113.938 163.562 113.593C168.129 113.217 172.102 115.225 175.6 118.077C180.442 122.037 183.685 127.231 186.642 132.62C192.168 142.696 196.292 153.313 198.537 164.595C199.817 171.016 200.313 177.55 200.701 184.327C202.924 181.805 204.372 179.002 206.141 176.427C208.62 172.821 211.001 169.151 213.428 165.507C213.838 164.891 214.312 164.347 214.18 163.476C213.428 159.059 215.783 156.192 219.24 154.071C221.151 152.901 223.25 152.034 225.297 151.103C227.374 150.214 229.24 148.897 230.771 147.237C231.254 146.663 231.833 146.177 232.482 145.8C233.758 145.125 235.146 144.907 236.387 145.849C237.486 146.686 237.399 147.905 237.14 149.11C236.671 151.32 235.705 153.395 234.314 155.179C233.325 156.413 233.904 156.503 235.037 156.646C242.99 157.695 251.059 155.914 257.827 151.617C259.091 150.802 260.478 150.195 261.935 149.819C262.627 149.654 263.414 149.309 263.993 150.116C263.722 152.368 262.063 153.869 260.95 155.79C262.826 155.208 264.622 154.393 266.295 153.366C267.962 152.66 269.613 151.917 271.299 151.264C272.051 150.979 272.924 150.6 273.556 151.418C274.233 152.296 273.462 152.946 272.965 153.542C271.141 155.734 269.264 157.881 266.525 159.862C268.47 159.937 269.764 159.16 271.13 158.759C271.938 158.522 272.789 157.817 273.53 158.721C274.271 159.626 274.068 160.643 273.507 161.532C271.833 164.208 269.094 165.54 266.393 166.828C261.469 169.173 256.108 169.86 250.781 170.622C247.306 171.06 243.856 171.671 240.443 172.453C233.295 174.213 227.923 178.221 224.337 184.65C219.94 192.531 216.678 200.911 213.774 209.419C209.846 220.952 205.666 232.372 199.659 243.03C197.619 246.617 195.285 250.029 192.68 253.23C192.116 253.932 191.551 254.66 190.528 253.958C190.077 253.054 190.378 252.303 190.946 251.549C198.24 241.893 202.725 230.856 206.671 219.559C210.753 207.888 214.631 196.141 220.335 185.108C224.168 177.696 229.552 172.074 237.847 169.74C242.136 168.535 246.522 167.863 250.935 167.323C255.905 166.696 260.878 166.054 265.532 164.028C265.908 163.859 266.544 163.859 266.468 162.951C262.405 163.746 258.354 164.399 254.054 163.908C254.746 163.229 255.427 163.251 256.085 163.12C257.109 162.917 258.388 163.026 259.027 162.129C259.847 160.984 260.998 160.436 262.131 159.791C264.388 158.496 266.333 156.789 268.225 154.912C262.507 158.432 256.303 159.791 249.611 159.269C254.52 158.095 259.132 156.488 261.901 151.617C260.34 151.726 259.697 151.94 257.932 153.081C252.007 156.909 245.454 158.47 238.475 158.335C235.048 158.267 231.704 157.716 228.494 155.873C229.397 155.516 230.059 155.832 230.729 155.873C231.237 155.903 231.858 156.5 232.234 155.839C233.543 153.52 235.308 151.426 235.868 148.709C236.011 148.011 236.12 147.305 235.492 146.802C235.197 146.562 234.83 146.427 234.45 146.417C234.07 146.406 233.696 146.522 233.389 146.746C232.841 147.042 232.342 147.422 231.91 147.872C229.856 150.274 227.197 151.741 224.352 152.957C222.629 153.707 220.858 154.36 219.353 155.516C216.644 157.592 214.515 159.945 215.662 163.773C215.888 164.523 215.448 165.086 215.045 165.649C208.556 174.81 202.725 184.414 196.611 193.796C193.316 198.877 189.979 203.929 186.924 209.183C185.656 211.348 183.692 213.225 183.463 215.938C183.165 219.486 182.859 223.032 182.545 226.577C181.852 234.804 181.869 243.074 182.598 251.298C182.752 252.863 182.835 254.446 181.447 255.632ZM96.0484 113.247C97.4479 115.623 99.1258 117.541 100.815 119.44C109.362 129.04 119.554 136.703 129.956 144.134C130.855 144.776 131.498 144.64 132.284 144.04C141.93 136.639 149.924 127.794 155.985 117.229C156.613 116.133 156.504 115.751 155.327 115.24C152.246 113.9 149.349 112.238 148.141 108.819C147.81 107.877 147.253 107.997 146.546 108.087C144.057 108.406 141.541 108.455 139.041 108.234C132.168 107.611 126.344 104.991 122.085 99.328C122.729 98.9527 123.082 99.4218 123.466 99.6845C132.943 106.158 150.154 106.064 160.62 97.8268C162.713 96.2242 164.452 94.2083 165.728 91.905C167.005 89.6017 167.791 87.0605 168.039 84.4402C168.133 83.5846 168.103 82.9166 167.083 82.5C164.025 81.2465 161.252 79.3476 158.028 78.4431C157.432 78.2588 156.859 78.007 156.32 77.6925C155.945 77.517 155.649 77.2095 155.488 76.8291C155.327 76.4488 155.312 76.0225 155.447 75.6322C155.695 74.7052 156.47 74.6339 157.253 74.679C158.379 74.7913 159.473 75.116 160.477 75.6359C163.11 76.8744 165.616 78.3043 167.896 80.4547C167.921 80.18 167.921 79.9036 167.896 79.629C167.185 76.9269 165.638 74.375 166.854 71.3727C167.26 70.3744 166.308 70.4569 165.725 70.6671C164.466 71.0655 163.133 71.1683 161.828 70.9673C160.123 70.7722 158.72 69.8002 157.2 68.8695C156.824 70.5658 156.448 72.0106 155.3 73.1027C152.896 75.3545 146.896 74.6827 144.97 71.8906C144.733 71.5903 144.619 71.2111 144.653 70.8303C144.687 70.4495 144.864 70.0959 145.15 69.8415C145.254 69.7023 145.385 69.5858 145.536 69.4992C145.687 69.4126 145.854 69.3577 146.027 69.338C146.199 69.3183 146.374 69.3342 146.541 69.3846C146.707 69.4351 146.861 69.519 146.994 69.6313C148.122 70.4269 149.202 71.2713 150.515 71.7554C151.742 72.2058 152.885 72.1307 153.807 71.155C154.793 70.1192 154.74 68.9032 154.213 67.6648C153.75 66.584 152.863 65.8822 151.956 65.1991C151.55 64.8876 151.087 64.6099 151.395 63.9945C151.64 63.5103 152.091 63.5666 152.543 63.6192C152.896 63.6454 153.246 63.9269 153.72 63.5854C153.442 62.5008 153.07 61.3862 152.878 60.2416C152.629 58.7629 151.576 58.3351 150.353 58.1962C148.062 57.9373 144.545 60.5756 144.304 62.9061C143.743 68.3103 139.173 72.5135 133.326 73.3167C127.683 74.0897 122.416 71.4402 120.63 66.7754C119.877 64.8389 119.745 62.6284 117.131 62.1218C116.755 62.0505 116.439 61.5964 116.168 61.2586C115.973 61.019 115.721 60.8324 115.435 60.7162C115.149 60.6 114.838 60.5581 114.531 60.5943C112.274 60.6169 110.017 60.5606 107.76 60.508C106.988 60.4893 106.465 60.538 105.961 61.3862C104.833 63.2626 101.153 63.3114 99.991 61.4688C99.3778 60.493 98.7195 60.2603 97.7112 60.3692C96.8422 60.463 95.9544 60.4405 95.0778 60.5718C89.1902 61.4537 88.4717 62.3394 89.811 68.1752C90.7515 72.3034 92.1961 76.2026 97.493 76.5029C98.6028 76.5667 99.5546 77.0921 99.2537 78.5857C99.122 79.235 99.6299 79.7641 100.044 80.2107C103.667 84.1738 106.898 88.5084 111.134 91.8935C112.06 92.6441 113.128 93.4284 113.248 94.6594C113.384 96.0254 112.616 97.5604 114.497 98.3897C114.813 98.5286 114.407 99.1741 114.17 99.5419C113.177 101.043 112.244 102.619 111.183 104.083C107.474 109.146 103.177 113.338 96.0484 113.247ZM19.6792 147.774C23.6594 150.713 27.523 153.069 32.2218 153.659C33.2905 153.791 34.2772 154.297 35.0057 155.088C35.1248 155.192 35.2082 155.331 35.244 155.484C35.2798 155.638 35.2662 155.799 35.2051 155.944C35.032 156.319 34.6709 156.226 34.3887 156.139C30.4461 154.983 26.2703 154.518 22.7603 152.094C21.169 150.998 19.5739 149.868 17.7117 149.241C17.2113 149.073 16.583 148.618 16.1354 149.106C15.6049 149.666 16.1128 150.277 16.3837 150.806C18.0841 154.124 20.8642 156.342 24.077 157.997C29.7426 160.924 35.9575 162.223 42.1159 163.593C44.7757 164.186 46.8298 166.081 46.8862 168.558C47.0442 175.257 45.7915 181.719 43.8766 188.103C41.3485 196.464 37.9175 204.567 36.4315 213.225C34.8176 222.607 35.1261 231.921 38.5044 240.925C40.7616 246.929 50.0764 251.594 56.3214 250.089C56.4455 250.059 56.5621 250.014 56.6976 249.988C60.7756 249.106 62.5062 245.818 63.9922 242.52C66.9754 235.888 68.1304 228.792 68.7361 221.605C69.8647 207.952 67.8181 194.558 65.2901 181.209C63.695 172.806 61.528 164.489 60.6966 155.974C60.3731 152.642 58.9322 150.397 56.7126 148.307C52.1418 144.002 46.4686 142.212 40.4418 141.263C32.124 139.946 23.539 140.084 15.5936 136.699C14.8788 136.395 13.9459 136.241 13.4079 137.157C13.1638 137.561 13.0511 138.031 13.0855 138.501C13.1198 138.972 13.2995 139.42 13.5998 139.784C14.4969 140.92 15.7022 141.774 17.0721 142.246C19.9933 143.375 23.0398 144.15 26.1461 144.554C26.7217 144.633 27.6246 144.622 27.6058 145.414C27.5832 146.318 26.6615 145.935 26.101 146.052C25.8513 146.085 25.5982 146.085 25.3486 146.052C18.0352 145.504 11.7037 142.948 6.94472 137.138C6.11331 136.125 5.32329 135.067 4.23982 134.286C3.54008 133.776 2.73501 133.397 2.00141 133.99C1.21139 134.639 1.71926 135.453 2.08794 136.185C3.11497 138.219 4.84551 139.27 6.8281 140.381C11.703 143.06 16.7603 145.395 21.9627 147.369C22.6662 147.643 23.4187 147.875 24.0996 148.679L19.6792 147.774ZM153.133 54.7924L153.179 54.327C152.031 53.8804 150.876 53.4488 149.736 52.976C149.573 52.9141 149.436 52.7971 149.349 52.6453C149.262 52.4935 149.232 52.3163 149.262 52.1442C149.292 51.9721 149.382 51.816 149.515 51.7027C149.648 51.5895 149.817 51.5261 149.992 51.5236C150.928 51.448 151.868 51.4305 152.806 51.471C153.543 51.5625 154.29 51.4736 154.984 51.2121C155.678 50.9505 156.298 50.5241 156.79 49.9699C157.845 48.8472 159.121 47.9545 160.538 47.348C161.955 46.7415 163.483 46.4343 165.025 46.4459C166.579 46.4459 166.568 45.8342 166.357 44.637C165.605 40.3287 164.754 36.0279 164.303 31.6858C164.085 29.5917 163.174 29.1151 161.399 29.1526C158.629 29.1981 155.891 28.5531 153.434 27.2761C150.519 25.8012 150.538 25.775 150.361 29.01C150.203 31.8697 149.654 32.1286 147.073 30.7476C143.943 29.07 140.99 27.1035 137.826 25.0056C137.431 26.9534 137.096 28.661 136.739 30.361C136.411 31.9222 135.742 32.2375 134.361 31.4193C132.363 30.2263 130.582 28.7035 129.094 26.9159C128.488 26.1991 128.187 26.2929 127.77 27.0622C127.115 28.2631 126.641 29.5842 125.659 30.5862C124.32 31.956 123.026 31.8697 121.897 30.3648C121.642 30.0308 121.563 29.5466 121.047 29.4115C119.882 32.1112 118.478 34.7021 116.852 37.1538C115.186 39.5706 113.406 41.9124 111.653 44.2843C111.183 44.9185 110.769 45.7441 109.746 45.5115C108.79 45.2938 108.851 44.4344 108.696 43.7213C108.696 43.68 108.512 43.6763 108.267 43.6237C107.778 44.577 107.417 45.6878 106.729 46.5322C104.122 49.741 104.235 53.1636 105.457 56.8489C105.792 57.8585 106.187 58.1512 107.101 58.155C109.735 58.155 112.368 58.1775 115.002 58.2225C115.889 58.2514 116.756 57.946 117.428 57.3668C120.272 54.9237 123.282 52.642 125.904 49.9849C128.636 47.211 132.067 45.2234 135.836 44.2317C136.379 44.0827 136.945 44.0356 137.506 44.0929C138.751 44.228 139.617 44.9185 139.82 46.1832C140.008 47.3541 139.609 48.2285 138.337 48.6151C137.927 48.7427 137.359 48.8628 137.186 49.5458C139.951 50.379 141.832 52.2517 143.093 54.7999C143.251 55.1151 143.469 55.5504 143.92 55.3928C146.919 54.3833 150.019 54.5222 153.133 54.7924ZM131.457 71.1512C136.347 71.0537 139.993 68.3853 141.238 63.6454C142.163 60.1665 141.908 56.6951 139.169 54.0343C136.535 51.4748 133.311 51.5986 130.035 52.7696C127.07 53.8316 124.286 55.359 122.887 58.2037C119.681 64.7676 124.094 71.3051 131.457 71.14V71.1512ZM161.12 50.6229C162.52 50.4465 163.494 50.2138 164.468 50.2251C165.755 50.2251 166.673 51.0245 166.726 52.2892C166.778 53.5539 166.131 54.601 164.702 54.7774C163.278 54.9838 161.843 55.0992 160.405 55.1226C157.02 55.1226 156.768 55.2615 156 58.6166C155.761 59.6546 155.701 60.7259 155.823 61.784C156.327 66.2162 161.211 69.5863 165.228 68.2953C166.617 67.8487 167.41 67.1431 167.429 65.5069C167.543 60.9515 167.424 56.3933 167.072 51.8501C166.85 49.3995 166.481 48.8478 164.062 49.2794C162.965 49.4033 161.936 49.8695 161.12 50.6116V50.6229ZM184.155 210.947C185.581 210.117 185.972 208.777 186.668 207.652C189.648 202.814 192.567 197.935 195.49 193.064C195.727 192.689 196.273 192.253 195.866 191.762C195.547 191.386 195.043 191.702 194.632 191.811C192.217 192.445 189.779 192.981 187.417 193.833C186.202 194.272 185.652 194.858 185.6 196.209C185.506 198.513 185.156 200.802 184.923 203.099C184.659 205.704 184.411 208.32 184.155 210.935V210.947ZM16.9555 155.235C15.9811 153.554 14.6983 152.064 14.0474 150.228C13.7389 149.38 13.4079 148.352 14.228 147.8C16.2595 146.457 14.5553 145.973 13.7089 145.601C11.3576 144.591 9.08526 143.407 6.91086 142.058C6.00045 141.48 4.79284 140.587 3.82976 141.503C2.86668 142.419 3.78085 143.623 4.26239 144.584C6.74157 149.557 11.034 152.623 15.714 155.272C15.9105 155.36 16.1241 155.402 16.339 155.395C16.554 155.389 16.7647 155.334 16.9555 155.235V155.235ZM35.7393 205.456L36.1381 205.599C37.5112 201.568 38.9972 197.571 40.1935 193.492C40.66 191.908 38.8355 192.572 38.1169 192.145C37.3419 191.679 37.1124 192.287 37.0372 193.038C36.6234 197.177 36.1719 201.317 35.7393 205.456ZM170.759 52.6344C170.932 54.8712 171.106 57.1091 171.282 59.3484L171.748 59.3221C172.139 57.0441 172.734 54.7361 170.759 52.6344ZM96.7519 57.9748C95.3336 57.2993 93.953 57.3031 92.7867 58.5302L96.7519 57.9748Z" fill="#212529"/>
<path d="M181.446 255.632C182.831 254.461 182.752 252.863 182.616 251.309C181.888 243.086 181.87 234.815 182.564 226.589C182.872 223.043 183.178 219.497 183.482 215.949C183.711 213.232 185.675 211.356 186.943 209.194C189.997 203.97 193.338 198.904 196.63 193.807C202.739 184.399 208.571 174.81 215.064 165.66C215.466 165.094 215.906 164.535 215.681 163.784C214.552 159.971 216.663 157.618 219.371 155.528C220.876 154.372 222.648 153.707 224.371 152.968C227.215 151.752 229.875 150.285 231.929 147.883C232.36 147.433 232.859 147.054 233.407 146.757C233.715 146.533 234.088 146.418 234.469 146.428C234.849 146.438 235.215 146.574 235.51 146.813C236.135 147.316 236.026 148.022 235.887 148.72C235.326 151.422 233.562 153.516 232.253 155.85C231.876 156.511 231.256 155.914 230.748 155.884C230.078 155.847 229.416 155.531 228.513 155.884C231.707 157.727 235.067 158.278 238.494 158.346C245.472 158.485 252.037 156.924 257.951 153.092C259.715 151.966 260.359 151.737 261.92 151.628C259.151 156.507 254.539 158.106 249.629 159.28C256.322 159.802 262.526 158.444 268.244 154.923C266.363 156.8 264.414 158.504 262.149 159.802C261.021 160.448 259.866 160.996 259.046 162.14C258.406 163.037 257.127 162.928 256.104 163.131C255.445 163.262 254.764 163.24 254.072 163.919C258.357 164.411 262.409 163.758 266.487 162.962C266.562 163.87 265.938 163.87 265.55 164.039C260.897 166.066 255.923 166.707 250.954 167.334C246.541 167.89 242.154 168.546 237.865 169.751C229.57 172.085 224.187 177.707 220.353 185.119C214.65 196.153 210.771 207.899 206.69 219.571C202.743 230.867 198.259 241.904 190.964 251.56C190.396 252.311 190.095 253.062 190.547 253.97C188.666 254.551 186.785 255.182 184.885 255.7C183.745 256.008 182.571 256.21 181.446 255.632Z" fill="white"/>
<path d="M179.14 255.25C179.341 255.127 179.582 255.088 179.811 255.141C180.04 255.194 180.238 255.336 180.363 255.535C179.799 256.116 179.392 256.015 179.14 255.25Z" fill="white"/>
<path d="M177.763 255.13C177.895 254.923 177.993 254.968 178.068 255.171L177.763 255.13Z" fill="white"/>
<path d="M96.0483 113.248C103.177 113.349 107.474 109.146 111.179 104.038C112.24 102.574 113.173 101.013 114.166 99.4971C114.403 99.1218 114.81 98.4838 114.494 98.3449C112.613 97.5156 113.365 95.9806 113.245 94.6146C113.124 93.3836 112.056 92.5918 111.13 91.8487C106.894 88.4711 103.663 84.129 100.04 80.1659C99.6297 79.7193 99.1181 79.1902 99.2498 78.5409C99.5507 77.0398 98.5989 76.5219 97.4891 76.4581C92.1922 76.1578 90.7476 72.2586 89.8071 68.1304C88.4828 62.2946 89.2014 61.409 95.0739 60.527C95.9354 60.3957 96.8233 60.4182 97.7073 60.3244C98.7156 60.2155 99.3739 60.4482 99.9871 61.424C101.15 63.2666 104.844 63.2141 105.957 61.3414C106.462 60.4933 106.985 60.4445 107.756 60.4632C110.013 60.5158 112.27 60.5721 114.527 60.5495C114.834 60.5133 115.145 60.5552 115.431 60.6714C115.718 60.7876 115.97 60.9742 116.164 61.2138C116.435 61.5516 116.758 62.0057 117.127 62.077C119.742 62.5836 119.888 64.7941 120.626 66.7306C122.401 71.3954 127.672 74.045 133.322 73.2719C139.169 72.4687 143.74 68.2655 144.3 62.8613C144.541 60.5308 148.062 57.8925 150.349 58.1514C151.572 58.2903 152.625 58.7181 152.874 60.1968C153.066 61.3226 153.438 62.4485 153.716 63.5406C153.242 63.8821 152.893 63.6006 152.539 63.5744C152.087 63.5406 151.636 63.4843 151.392 63.9497C151.083 64.5651 151.546 64.8429 151.952 65.1543C152.851 65.8374 153.739 66.5392 154.209 67.62C154.736 68.8547 154.789 70.0744 153.803 71.1102C152.881 72.0822 151.738 72.161 150.511 71.7107C149.198 71.2265 148.111 70.3821 146.99 69.5865C146.857 69.4742 146.703 69.3903 146.537 69.3398C146.37 69.2894 146.195 69.2735 146.023 69.2932C145.85 69.3129 145.683 69.3678 145.532 69.4544C145.382 69.541 145.25 69.6575 145.147 69.7967C144.861 70.0511 144.683 70.4048 144.649 70.7855C144.616 71.1663 144.729 71.5455 144.966 71.8458C146.892 74.6379 152.893 75.3247 155.297 73.0579C156.451 71.9659 156.801 70.521 157.196 68.8247C158.701 69.7554 160.119 70.7274 161.824 70.9225C163.129 71.1235 164.463 71.0207 165.721 70.6223C166.316 70.4122 167.267 70.3296 166.85 71.3279C165.631 74.3302 167.181 76.8859 167.892 79.5842C167.917 79.8589 167.917 80.1352 167.892 80.4099C165.612 78.2595 163.103 76.8296 160.473 75.5912C159.469 75.0712 158.375 74.7465 157.249 74.6342C156.466 74.5891 155.692 74.6604 155.443 75.5874C155.308 75.9777 155.323 76.404 155.484 76.7844C155.645 77.1647 155.941 77.4722 156.316 77.6477C156.855 77.9622 157.428 78.214 158.024 78.3983C161.248 79.3028 164.021 81.2017 167.079 82.4552C168.099 82.8718 168.129 83.5398 168.035 84.3954C167.787 87.0176 167 89.5606 165.722 91.8653C164.444 94.17 162.704 96.1868 160.609 97.7895C150.143 106.046 132.931 106.121 123.455 99.6472C123.078 99.3845 122.702 98.8966 122.074 99.2907C126.333 104.954 132.156 107.573 139.029 108.196C141.529 108.418 144.046 108.369 146.535 108.05C147.242 107.96 147.799 107.84 148.13 108.782C149.337 112.208 152.234 113.863 155.315 115.203C156.493 115.713 156.602 116.096 155.974 117.192C149.921 127.756 141.926 136.602 132.273 144.003C131.487 144.603 130.843 144.753 129.944 144.096C119.542 136.67 109.351 129.002 100.803 119.402C99.1256 117.541 97.4365 115.623 96.0483 113.248ZM150.18 84.6807C150.349 85.754 150.522 86.681 149.586 87.2326C148.555 87.8406 147.543 87.5704 146.576 86.9887C145.297 86.2381 144.838 84.9208 144.349 83.6336C144.183 83.1983 144.18 82.5453 143.484 82.6203C142.901 82.6804 142.731 83.2433 142.573 83.7049C142.182 85.1006 142.292 86.589 142.886 87.9119C143.546 89.4463 144.767 90.673 146.3 91.3433C147.833 92.0136 149.564 92.0776 151.143 91.5222C154.243 90.34 156.034 86.8498 155.06 83.9714C154.552 82.4702 153.495 81.5883 151.967 81.8472C150.44 82.1062 150.011 83.4122 150.18 84.6807ZM147.193 74.7055C146.774 74.757 146.359 74.8385 145.952 74.9494C141.655 76.3027 137.554 78.209 133.751 80.62C133.141 81.0531 132.566 81.5337 132.032 82.0574C131.901 82.148 131.81 82.2857 131.778 82.4418C131.747 82.5978 131.777 82.76 131.863 82.8943C132.085 83.187 132.397 83.0782 132.702 82.9393C137.592 80.6651 142.859 79.4829 148.025 78.0305C148.999 77.7566 149.834 77.1936 149.62 76.064C149.405 74.9344 148.427 74.7392 147.193 74.7055ZM93.2982 63.4243C94.2613 63.2141 94.7015 63.9872 95.1793 64.5989C95.9317 65.5747 96.5862 66.6442 97.3838 67.6012C98.1814 68.5582 99.1181 68.911 100.134 67.9765C101.15 67.0421 100.935 66.0513 100.164 65.1581C99.038 63.8172 97.6522 62.7168 96.0897 61.9231C94.8971 61.3339 93.6519 61.3939 92.7302 62.5649C92.6339 62.6805 92.5633 62.8153 92.5231 62.9602C92.4828 63.1051 92.4739 63.2569 92.4969 63.4055C92.6399 63.7996 92.986 63.5669 93.2982 63.4243Z" fill="white"/>
<path d="M19.6754 147.782L24.0769 148.69C23.396 147.887 22.6436 147.654 21.9401 147.38C16.7377 145.407 11.6804 143.072 6.80545 140.392C4.82286 139.266 3.09233 138.23 2.06529 136.196C1.68909 135.446 1.18874 134.65 1.97877 134.001C2.70108 133.408 3.51744 133.787 4.23599 134.297C5.31945 135.078 6.117 136.136 6.94089 137.15C11.6999 142.959 18.0314 145.515 25.3447 146.063C25.5944 146.096 25.8475 146.096 26.0971 146.063C26.6426 145.946 27.5643 146.329 27.602 145.425C27.602 144.633 26.7179 144.644 26.1423 144.565C23.036 144.161 19.9895 143.386 17.0683 142.257C15.6983 141.785 14.4931 140.931 13.5959 139.795C13.2957 139.431 13.116 138.983 13.0816 138.512C13.0473 138.042 13.1599 137.572 13.4041 137.168C13.942 136.253 14.875 136.418 15.5898 136.711C23.5352 140.088 32.1202 139.957 40.438 141.274C46.4573 142.224 52.1379 144.014 56.7088 148.318C58.9284 150.409 60.3693 152.653 60.6928 155.985C61.5204 164.501 63.7024 172.817 65.2862 181.22C67.8143 194.569 69.8684 207.963 68.7322 221.616C68.1341 228.803 66.9716 235.9 63.9883 242.531C62.5023 245.83 60.7718 249.117 56.6937 249.999C56.5696 250.025 56.453 250.07 56.3175 250.1C50.0726 251.602 40.754 246.944 38.5006 240.936C35.1147 231.929 34.8138 222.626 36.4277 213.236C37.9325 204.578 41.3447 196.475 43.8727 188.114C45.7989 181.734 47.0517 175.268 46.8824 168.569C46.8259 166.092 44.7719 164.197 42.1121 163.604C35.9537 162.226 29.7388 160.928 24.0769 157.997C20.8679 156.338 18.0878 154.12 16.3836 150.81C16.1127 150.281 15.6048 149.684 16.1353 149.11C16.5943 148.622 17.2112 149.076 17.7116 149.245C19.5926 149.872 21.1689 151.002 22.7602 152.097C26.2702 154.522 30.4461 154.987 34.3887 156.143C34.6708 156.229 35.032 156.323 35.205 155.948C35.2661 155.802 35.2797 155.641 35.2439 155.488C35.2081 155.334 35.1248 155.196 35.0056 155.092C34.2772 154.301 33.2904 153.794 32.2217 153.662C27.5192 153.077 23.6556 150.72 19.6754 147.782ZM43.1203 150.491C46.8485 150.243 50.3622 150.833 53.6014 152.773C53.9964 153.013 54.6133 153.291 54.9594 152.773C55.3056 152.255 54.8014 151.82 54.3839 151.587C50.7874 149.579 47.0517 149.076 43.1203 150.491ZM42.5786 150.675C42.4764 150.623 42.3655 150.59 42.2513 150.577C42.1723 150.577 42.1084 150.701 42.0406 150.765C42.1386 150.818 42.2458 150.853 42.3566 150.866C42.4356 150.866 42.5109 150.746 42.5786 150.675Z" fill="white"/>
<path d="M153.133 54.7924C150.018 54.5334 146.919 54.3946 143.913 55.4003C143.442 55.558 143.243 55.1226 143.085 54.8074C141.825 52.2442 139.944 50.3715 137.179 49.5533C137.352 48.8703 137.931 48.7502 138.33 48.6226C139.601 48.2473 140 47.3616 139.812 46.1907C139.609 44.926 138.744 44.2355 137.498 44.1004C136.938 44.0431 136.371 44.0902 135.828 44.2392C132.059 45.231 128.628 47.2185 125.896 49.9924C123.263 52.6495 120.253 54.9312 117.42 57.3744C116.748 57.9535 115.882 58.259 114.994 58.23C112.363 58.2 109.73 58.1775 107.094 58.1625C106.18 58.1625 105.785 57.866 105.45 56.8565C104.227 53.1711 104.114 49.7485 106.721 46.5398C107.41 45.6954 107.771 44.5845 108.26 43.6313C108.504 43.6838 108.681 43.6876 108.689 43.7288C108.843 44.4419 108.783 45.3013 109.738 45.519C110.762 45.7517 111.176 44.926 111.646 44.2918C113.399 41.935 115.178 39.5932 116.845 37.1613C118.47 34.7133 119.874 32.1261 121.04 29.4303C121.555 29.5654 121.634 30.0495 121.89 30.3835C123.018 31.8847 124.324 31.9748 125.652 30.605C126.63 29.6029 127.108 28.2819 127.762 27.081C128.18 26.3304 128.481 26.2178 129.087 26.9346C130.574 28.7223 132.355 30.2451 134.353 31.4381C135.734 32.2487 136.404 31.941 136.731 30.3798C137.088 28.6797 137.423 26.9722 137.818 25.0244C140.982 27.1223 143.935 29.0888 147.065 30.7663C149.646 32.1474 150.195 31.8922 150.353 29.0288C150.53 25.7863 150.511 25.82 153.427 27.2949C155.884 28.5719 158.621 29.2168 161.391 29.1714C163.163 29.1338 164.077 29.6105 164.295 31.7046C164.747 36.0467 165.59 40.3362 166.349 44.6558C166.56 45.853 166.571 46.4797 165.018 46.4647C163.476 46.4531 161.948 46.7603 160.53 47.3668C159.113 47.9733 157.837 48.866 156.783 49.9887C156.291 50.5429 155.671 50.9693 154.977 51.2308C154.283 51.4924 153.535 51.5813 152.799 51.4898C151.86 51.4492 150.921 51.4668 149.985 51.5424C149.81 51.5449 149.641 51.6082 149.507 51.7215C149.374 51.8348 149.285 51.9909 149.254 52.163C149.224 52.335 149.255 52.5122 149.341 52.6641C149.428 52.8159 149.565 52.9328 149.729 52.9947C150.857 53.4676 152.024 53.8992 153.171 54.3458L153.133 54.7924Z" fill="white"/>
<path d="M131.457 71.1402C124.094 71.2865 119.682 64.7602 122.902 58.2039C124.298 55.3592 127.081 53.8318 130.05 52.7697C133.326 51.5988 136.55 51.475 139.184 54.0345C141.923 56.6953 142.194 60.1667 141.253 63.6456C139.993 68.3743 136.347 71.0426 131.457 71.1402ZM127.179 58.1476C126.785 58.9718 126.566 59.8686 126.537 60.7813C126.508 61.6941 126.669 62.603 127.01 63.4505C127.442 64.5991 128.255 65.5661 129.313 66.1912C130.372 66.8163 131.612 67.0622 132.83 66.8881C134.895 66.5804 136.445 64.7265 136.682 62.2083C136.787 61.0824 136.81 59.9565 136.836 58.8307C136.866 57.4533 136.227 56.5001 134.827 56.3613C133.428 56.2224 132.548 57.0518 132.262 58.339C132.081 59.1722 132.228 60.0729 132.194 60.9435C132.164 61.6416 132.653 62.6361 131.739 62.9213C130.825 63.2065 130.369 62.2758 129.88 61.6341C129.038 60.5307 128.511 59.1497 127.179 58.1476Z" fill="white"/>
<path d="M161.12 50.6115C161.937 49.8632 162.971 49.3928 164.073 49.268C166.492 48.8514 166.861 49.3881 167.083 51.8387C167.435 56.382 167.554 60.9402 167.44 65.4955C167.422 67.1318 166.628 67.8373 165.24 68.2839C161.222 69.5749 156.339 66.2048 155.834 61.7727C155.712 60.7145 155.772 59.6433 156.011 58.6052C156.764 55.2501 157.031 55.1 160.417 55.1113C161.855 55.0878 163.29 54.9725 164.713 54.766C166.142 54.5896 166.805 53.5576 166.737 52.2778C166.669 50.9981 165.755 50.2325 164.48 50.2137C163.494 50.2025 162.52 50.4352 161.12 50.6115ZM164.777 60.7031C164.772 59.6178 164.495 58.551 163.972 57.5994C163.362 56.5899 162.41 56.3797 161.372 56.7701C160.334 57.1604 160.052 58.046 160.383 59.0631C160.608 59.7686 160.97 60.4329 161.248 61.1234C161.526 61.8139 161.846 62.572 161.203 62.9999C160.477 63.4915 159.619 63.21 159.036 62.5082C158.682 62.0804 158.419 61.5813 158.092 61.1309C157.591 60.4516 157.757 58.7553 156.719 59.1757C155.812 59.5509 156.312 61.0521 156.655 62.0616C156.771 62.4162 156.909 62.7633 157.068 63.1012C158.024 65.0639 160.037 66.081 161.989 65.5969C164.051 65.094 164.969 63.6604 164.777 60.7031Z" fill="white"/>
<path d="M184.155 210.936C184.411 208.308 184.659 205.704 184.907 203.088C185.141 200.791 185.491 198.502 185.585 196.198C185.637 194.847 186.187 194.261 187.402 193.822C189.764 192.97 192.202 192.434 194.617 191.8C195.027 191.691 195.531 191.372 195.851 191.751C196.261 192.242 195.716 192.663 195.475 193.053C192.552 197.932 189.633 202.811 186.653 207.64C185.972 208.766 185.581 210.106 184.155 210.936Z" fill="white"/>
<path d="M16.9555 155.235C16.7647 155.334 16.554 155.389 16.3391 155.395C16.1241 155.402 15.9105 155.36 15.714 155.273C11.0416 152.623 6.74158 149.557 4.2624 144.584C3.78086 143.624 2.86293 142.426 3.82977 141.503C4.79661 140.58 6.00046 141.481 6.91087 142.059C9.08492 143.411 11.3573 144.599 13.7089 145.613C14.5553 145.988 16.2595 146.468 14.228 147.812C13.4079 148.356 13.739 149.392 14.0474 150.24C14.7171 152.064 15.9811 153.554 16.9555 155.235Z" fill="white"/>
<path d="M35.7393 205.456C36.1757 201.328 36.6271 197.178 37.0372 193.038C37.1124 192.287 37.3419 191.68 38.1169 192.145C38.8354 192.573 40.66 191.908 40.1935 193.492C38.9972 197.572 37.5112 201.568 36.138 205.599L35.7393 205.456Z" fill="white"/>
<path d="M170.759 52.6348C172.734 54.7364 172.139 57.0369 171.748 59.3224L171.281 59.3487C171.108 57.112 170.934 54.874 170.759 52.6348Z" fill="white"/>
<path d="M96.7518 57.9747L92.7866 58.5451C93.9529 57.3029 95.3335 57.2992 96.7518 57.9747Z" fill="white"/>
<path d="M150.18 84.6807C150.011 83.4122 150.391 82.1137 151.967 81.8472C153.543 81.5808 154.552 82.4702 155.059 83.9714C156.038 86.8498 154.243 90.3513 151.143 91.5222C149.564 92.0776 147.833 92.0136 146.3 91.3433C144.767 90.673 143.546 89.4463 142.886 87.9119C142.291 86.5837 142.183 85.0894 142.581 83.6899C142.72 83.2283 142.908 82.6654 143.491 82.6053C144.187 82.5303 144.191 83.1833 144.356 83.6186C144.846 84.9058 145.305 86.2081 146.584 86.9737C147.55 87.5554 148.562 87.8256 149.593 87.2176C150.522 86.6922 150.349 85.754 150.18 84.6807Z" fill="#212529"/>
<path d="M147.193 74.7051C148.427 74.7389 149.409 74.964 149.62 76.0636C149.83 77.1632 148.999 77.7562 148.024 78.0301C142.855 79.4825 137.604 80.6572 132.702 82.9389C132.397 83.0778 132.085 83.1866 131.863 82.8939C131.777 82.7596 131.747 82.5975 131.778 82.4414C131.81 82.2854 131.901 82.1476 132.032 82.057C132.566 81.5333 133.141 81.0527 133.751 80.6196C137.558 78.2074 141.665 76.3011 145.967 74.949C146.369 74.8388 146.779 74.7573 147.193 74.7051V74.7051Z" fill="#212529"/>
<path d="M93.2982 63.424C92.9822 63.5816 92.6361 63.8293 92.4932 63.424C92.4702 63.2753 92.4791 63.1236 92.5193 62.9786C92.5595 62.8337 92.6301 62.699 92.7264 62.5833C93.6481 61.4124 94.8933 61.3524 96.0859 61.9416C97.6474 62.7272 99.0343 63.8184 100.164 65.1503C100.935 66.0435 101.097 67.0793 100.134 67.9687C99.1708 68.8581 98.14 68.4866 97.3838 67.5934C96.6276 66.7002 95.943 65.5819 95.1793 64.5911C94.7052 63.9719 94.2651 63.1988 93.2982 63.424Z" fill="#212529"/>
<path d="M43.1204 150.491C47.0517 149.076 50.7987 149.579 54.3839 151.576C54.8015 151.808 55.3206 152.21 54.9595 152.762C54.5983 153.313 53.9964 153.013 53.6014 152.762C50.3623 150.833 46.8485 150.243 43.1204 150.491Z" fill="#212529"/>
<path d="M42.5785 150.675C42.5033 150.747 42.4355 150.859 42.3565 150.867C42.2457 150.853 42.1385 150.819 42.0405 150.765C42.1082 150.701 42.1722 150.585 42.2512 150.578C42.3654 150.59 42.4763 150.623 42.5785 150.675Z" fill="#212529"/>
<path d="M127.179 58.1474C128.511 59.1494 129.026 60.5305 129.88 61.6489C130.369 62.2906 130.843 63.2213 131.739 62.9361C132.634 62.6509 132.164 61.6564 132.194 60.9583C132.228 60.0877 132.081 59.187 132.262 58.3538C132.548 57.0666 133.447 56.2447 134.827 56.376C136.208 56.5074 136.866 57.4681 136.836 58.8454C136.81 59.9713 136.787 61.0972 136.682 62.2231C136.445 64.7412 134.895 66.5952 132.83 66.9029C131.612 67.077 130.372 66.8311 129.313 66.206C128.255 65.5808 127.442 64.6139 127.01 63.4653C126.667 62.6157 126.504 61.7041 126.534 60.7886C126.563 59.873 126.783 58.9736 127.179 58.1474V58.1474Z" fill="#212529"/>
<path d="M164.777 60.7031C164.954 63.6604 164.024 65.094 161.989 65.6044C160.037 66.0885 158.024 65.0715 157.068 63.1087C156.91 62.7709 156.771 62.4237 156.655 62.0692C156.312 61.0634 155.812 59.551 156.719 59.1832C157.757 58.7629 157.591 60.4592 158.092 61.1385C158.419 61.5888 158.682 62.088 159.036 62.5158C159.619 63.2176 160.477 63.499 161.203 63.0074C161.846 62.5721 161.504 61.7615 161.248 61.131C160.992 60.5005 160.609 59.7762 160.383 59.0706C160.052 58.0536 160.315 57.1942 161.372 56.7776C162.429 56.361 163.362 56.5975 163.972 57.607C164.494 58.5563 164.77 59.6204 164.777 60.7031V60.7031Z" fill="#212529"/>
<path d="M228.393 78.6722C228.696 76.7945 229.362 75.3088 230.391 74.2151C231.456 73.1273 232.92 71.9743 234.784 70.7561C236.151 69.8652 237.163 69.1023 237.821 68.4676C238.521 67.8026 238.947 67.0006 239.099 66.0617C239.315 64.7256 238.942 63.591 237.981 62.6578C237.062 61.6943 235.718 61.0697 233.949 60.784C232.252 60.51 230.677 60.6262 229.224 61.1327C227.813 61.6089 226.554 62.4061 225.448 63.5242L219.514 58.6203C221.404 56.5541 223.733 55.096 226.501 54.2461C229.305 53.402 232.476 53.2656 236.015 53.837C240.168 54.5074 243.347 55.9285 245.553 58.1002C247.795 60.2777 248.663 62.9373 248.155 66.0789C247.916 67.5594 247.454 68.8186 246.767 69.8564C246.117 70.9 245.367 71.7607 244.516 72.4386C243.708 73.0861 242.662 73.8251 241.38 74.6554C239.851 75.6314 238.713 76.485 237.965 77.2165C237.223 77.9118 236.758 78.8372 236.572 79.9927L228.393 78.6722ZM230.314 92.9324C228.834 92.6934 227.664 92.0228 226.804 90.9207C225.987 89.7883 225.689 88.536 225.91 87.1638C226.132 85.7916 226.803 84.7328 227.924 83.9875C229.05 83.206 230.372 82.9377 231.889 83.1826C233.405 83.4275 234.575 84.098 235.399 85.1943C236.228 86.2545 236.532 87.4707 236.31 88.8429C236.089 90.2151 235.394 91.307 234.225 92.1188C233.098 92.9002 231.795 93.1715 230.314 92.9324Z" fill="#212529"/>
<path d="M243.247 221.287C243.398 220.348 243.731 219.606 244.245 219.059C244.777 218.516 245.509 217.939 246.441 217.33C247.124 216.885 247.63 216.504 247.959 216.187C248.309 215.854 248.522 215.453 248.598 214.984C248.705 214.316 248.519 213.749 248.039 213.283C247.58 212.801 246.908 212.489 246.023 212.346C245.175 212.209 244.388 212.267 243.662 212.521C242.957 212.759 242.328 213.157 241.774 213.716L238.809 211.265C239.754 210.232 240.917 209.503 242.301 209.079C243.702 208.657 245.287 208.588 247.056 208.874C249.132 209.209 250.721 209.919 251.823 211.005C252.944 212.093 253.378 213.422 253.124 214.993C253.005 215.733 252.773 216.362 252.43 216.881C252.105 217.402 251.73 217.833 251.305 218.171C250.901 218.495 250.379 218.864 249.737 219.279C248.974 219.767 248.405 220.194 248.031 220.559C247.66 220.907 247.428 221.369 247.335 221.947L243.247 221.287ZM244.207 228.414C243.467 228.295 242.882 227.96 242.453 227.409C242.044 226.843 241.895 226.217 242.006 225.531C242.116 224.845 242.452 224.316 243.012 223.944C243.575 223.553 244.236 223.419 244.994 223.541C245.752 223.664 246.337 223.999 246.748 224.547C247.163 225.077 247.314 225.685 247.204 226.37C247.093 227.056 246.746 227.602 246.162 228.008C245.598 228.398 244.947 228.534 244.207 228.414Z" fill="#212529"/>
<path d="M38.9684 75.9726C38.4195 74.795 38.2259 73.6998 38.3879 72.687C38.5724 71.6636 38.9579 70.4502 39.5441 69.0466C39.9747 68.0188 40.2543 67.1993 40.3829 66.588C40.5235 65.9435 40.4566 65.3268 40.1821 64.738C39.7915 63.9001 39.1456 63.4017 38.2445 63.2429C37.3555 63.0508 36.3562 63.2134 35.2465 63.7307C34.1821 64.2269 33.3365 64.8968 32.7098 65.7403C32.0951 66.5506 31.6894 67.4841 31.4927 68.5407L26.2581 68.0449C26.5336 66.1521 27.2905 64.4347 28.5289 62.8925C29.79 61.3397 31.5302 60.0461 33.7495 59.0115C36.3539 57.7974 38.696 57.381 40.7759 57.7622C42.8785 58.1329 44.389 59.3033 45.3075 61.2736C45.7403 62.2021 45.9618 63.0913 45.972 63.9411C46.0049 64.7804 45.911 65.5547 45.6903 66.2641C45.4818 66.9403 45.1742 67.759 44.7678 68.7204C44.2783 69.8584 43.9624 70.7775 43.8202 71.4778C43.6675 72.1555 43.7601 72.8567 44.0979 73.5814L38.9684 75.9726ZM45.5249 83.2955C44.5964 83.7284 43.6779 83.7982 42.7693 83.505C41.8728 83.1785 41.2239 82.5851 40.8228 81.7245C40.4216 80.8639 40.3948 80.008 40.7423 79.1568C41.0793 78.283 41.7233 77.6243 42.6745 77.1809C43.6256 76.7375 44.5442 76.6677 45.4301 76.9715C46.3055 77.2526 46.9438 77.8235 47.345 78.684C47.7461 79.5446 47.7722 80.4284 47.4231 81.3355C47.0862 82.2093 46.4534 82.8627 45.5249 83.2955Z" fill="#212529"/>
<path d="M62.7641 30.0532C62.8719 29.158 63.1589 28.4416 63.6253 27.904C64.1089 27.3685 64.7805 26.7944 65.6401 26.1819C66.2703 25.7338 66.7352 25.3532 67.0349 25.04C67.3538 24.7116 67.5402 24.3237 67.5941 23.8761C67.6708 23.2392 67.4726 22.7089 66.9997 22.2852C66.5461 21.8464 65.8975 21.5762 65.054 21.4747C64.245 21.3773 63.5012 21.4625 62.8229 21.7301C62.1638 21.9826 61.5828 22.3842 61.0799 22.9349L58.1762 20.7255C59.0318 19.7108 60.107 18.9758 61.4017 18.5204C62.7137 18.067 64.2131 17.9419 65.9001 18.145C67.8798 18.3832 69.4127 18.9956 70.499 19.9821C71.6024 20.9706 72.0641 22.2137 71.8838 23.7113C71.7988 24.4171 71.6038 25.0223 71.2985 25.5269C71.0105 26.0337 70.6716 26.4556 70.2817 26.7929C69.9111 27.1151 69.43 27.485 68.8383 27.9028C68.133 28.3942 67.6102 28.8202 67.27 29.1809C66.9317 29.5244 66.7295 29.9716 66.6632 30.5225L62.7641 30.0532ZM63.9465 36.7705C63.2407 36.6856 62.6737 36.3903 62.2456 35.8847C61.8368 35.364 61.6717 34.7766 61.7504 34.1224C61.8292 33.4683 62.1268 32.954 62.6434 32.5796C63.1621 32.188 63.7829 32.0357 64.5059 32.1227C65.2289 32.2097 65.7959 32.505 66.2068 33.0085C66.6198 33.4948 66.7869 34.065 66.7081 34.7192C66.6294 35.3733 66.3211 35.9037 65.7831 36.3105C65.2645 36.7021 64.6523 36.8555 63.9465 36.7705Z" fill="#212529"/>
</g>
<defs>
<clipPath id="clip0_18_69">
<rect width="274" height="256" fill="white"/>
</clipPath>
</defs>
</svg>
