<svg width="120" height="215" viewBox="0 0 120 215" fill="none" xmlns="http://www.w3.org/2000/svg">
<path d="M30.7695 0.147124C32.894 -0.0544148 35.0332 0.0509793 37.1669 0.0398854C54.1183 0.0657711 71.0698 0.0287901 88.0212 0.0528268C89.3876 -0.283687 90.6079 1.04573 90.166 2.38808C88.5611 13.8 86.8267 25.1952 85.1922 36.6034C85.085 37.5611 84.767 38.9109 83.6483 39.1291C81.4739 39.3547 79.2829 39.2345 77.1048 39.253C64.1601 39.24 51.2155 39.2363 38.2726 39.2604C37.2779 39.1605 35.9799 39.4785 35.2754 38.5522C34.8187 38.1251 34.8557 37.4206 34.7133 36.8733C33.1972 26.3286 31.6348 15.7913 30.0983 5.2503C29.9208 3.95601 29.6435 2.66913 29.6416 1.3582C29.7248 0.781323 30.2018 0.272854 30.7695 0.147124Z" fill="#010101"/>
<path d="M46.2879 46.0234C55.4126 46.1251 64.5391 46.1214 73.6657 46.0308C82.8865 46.1603 92.1111 46.0456 101.334 46.0845C103.203 45.894 104.773 47.1975 105.906 48.5343C107.156 50.1873 107.757 52.2175 108.192 54.2162C108.371 55.5105 108.591 56.9564 107.794 58.1028C107.622 58.6094 107.062 58.6889 106.613 58.7499C104.425 58.9533 102.227 59.018 100.032 59.031C74.1464 59.0291 48.2608 59.0254 22.3751 59.0328C19.2651 59.0199 16.1459 59.1253 13.0526 58.7425C11.3903 58.5262 11.4273 56.1836 11.4902 54.9688C11.8581 52.7038 12.5275 50.4 13.9364 48.551C14.7703 47.5285 15.8094 46.5264 17.1333 46.2157C19.9178 45.9384 22.7227 46.1196 25.5184 46.0845C32.4409 46.0604 39.3653 46.1529 46.2879 46.0234Z" fill="#010101"/>
<path d="M13.3151 71.2306C21.6096 66.4621 32.6332 66.8245 40.484 72.3511C44.1265 74.6845 46.8574 78.0792 49.6068 81.3537C50.6811 82.7127 51.539 84.2234 52.5486 85.6323C54.6971 88.5795 56.9214 91.4806 58.8887 94.5536C57.6018 96.6651 56.1467 98.6713 54.9097 100.814C54.6841 101.264 54.416 101.742 54.4475 102.262C54.6139 102.77 54.9707 103.188 55.2702 103.627C53.804 106.104 52.2102 108.5 50.5184 110.828C48.5529 113.866 46.4137 116.808 43.9508 119.463C42.871 118.084 41.843 116.665 40.8131 115.251C33.6372 120.195 23.9283 121.329 15.9093 117.817C7.70165 114.428 1.49833 106.557 0.313139 97.7338C-0.221215 94.2023 -0.102879 90.558 0.91036 87.1226C2.61512 80.4108 7.25789 74.5569 13.3151 71.2306ZM24.6771 81.4961C20.1711 81.8493 16.0627 84.9759 14.4264 89.1694C12.2945 94.0766 13.9013 100.302 18.1243 103.584C22.4861 107.293 29.4696 107.271 33.8369 103.586C38.2689 100.145 39.8701 93.4054 37.1392 88.4464C35.7987 86.4088 34.4193 84.2141 32.1932 83.0419C29.943 81.7309 27.2638 81.1689 24.6771 81.4961Z" fill="#010101"/>
<path d="M84.6948 69.5853C88.3761 68.2596 92.3329 67.7178 96.2361 67.9656C104.3 68.6793 111.96 73.3165 116.135 80.2816C120.667 87.4907 121.271 97.013 117.623 104.716C115.6 109.09 112.359 112.936 108.308 115.564C101.134 120.388 91.4473 121.238 83.5706 117.651C82.0268 117.011 80.6123 116.113 79.1886 115.251C77.9646 116.969 76.7794 118.755 75.1264 120.099C74.886 119.907 74.4053 119.521 74.1649 119.328C72.5729 121.49 70.8312 123.535 69.3095 125.746C67.9542 127.695 66.512 129.585 64.9663 131.385C62.5108 134.471 60.3549 137.82 57.5315 140.595C56.0727 142.143 55.0317 144.014 53.8077 145.741C52.5633 147.553 51.1637 149.25 49.727 150.911C47.3233 153.612 45.4762 156.742 43.1983 159.545C40.2621 163.558 37.0245 167.335 34.1383 171.384C31.2243 175.058 28.3011 178.725 25.3279 182.351C24.1113 183.858 22.5489 185.078 20.7868 185.88C20.6777 185.817 20.4633 185.695 20.3542 185.634C19.8069 182.29 19.9437 178.886 19.8013 175.515C19.8993 171.214 20.234 166.852 21.5726 162.737C22.1883 160.244 23.2478 157.902 24.2093 155.533C25.3094 153.29 26.1692 150.931 27.4357 148.773C28.828 146.297 30.4755 143.975 31.766 141.444C33.1047 139.353 34.1309 137.086 35.488 135.006C37.1096 132.456 38.7607 129.925 40.5302 127.477C42.1647 125.193 43.3869 122.642 45.1267 120.425C47.0811 117.651 49.4959 115.216 51.2247 112.284C52.972 109.39 54.9892 106.67 56.705 103.758C56.4721 103.288 56.1688 102.834 56.0838 102.308C56.4906 101.279 57.2542 100.426 57.8403 99.498C59.3417 97.3976 60.5472 95.0993 62.1077 93.0414C64.1176 90.1292 66.2624 87.3169 68.2852 84.4159C69.7385 82.0548 71.5301 79.9266 73.4013 77.8853C76.3818 74.2243 80.3275 71.3658 84.6948 69.5853ZM92.5326 81.4964C88.1025 81.9438 84.0828 85.0298 82.4687 89.1696C80.3368 94.0768 81.9436 100.302 86.1666 103.584C90.5284 107.293 97.5119 107.271 101.879 103.586C106.126 100.284 107.691 94.1101 105.585 89.1678C103.612 84.0683 97.9686 80.6976 92.5326 81.4964ZM58.4819 103.751C54.6028 110.096 50.5313 116.331 46.1067 122.311C44.6275 124.796 42.847 127.079 41.2587 129.492C39.6871 131.737 38.4224 134.174 36.9783 136.5C35.4048 139.098 33.6797 141.603 32.1211 144.21C29.588 148.845 26.7036 153.338 25.0099 158.373C21.6928 166.15 20.7388 174.827 21.7021 183.184C24.3221 180.91 26.3504 178.079 28.6579 175.513C32.4798 171.259 35.5398 166.401 39.1934 162.01C42.8969 157.589 45.7036 152.473 49.6882 148.283C51.478 146.218 52.8832 143.855 54.5713 141.708C56.803 138.227 59.5672 135.143 62.3463 132.097C65.9906 127.628 69.4389 123 73.0907 118.537C67.8895 113.951 62.8806 109.124 58.4819 103.751Z" fill="#010101"/>
<path d="M60.3678 115.911C61.4753 115.495 62.6014 116.29 63.0562 117.268C64.1268 119.478 63.5055 122.129 61.9746 123.952C60.9891 124.681 59.7244 125.049 58.5022 124.793C57.7349 124.364 56.9749 123.725 56.7309 122.846C56.3204 120.777 56.6199 118.477 57.9124 116.763C58.6205 116.251 59.5247 116.085 60.3678 115.911ZM59.2621 117.434C59.5191 117.913 59.7946 118.385 60.0775 118.853C60.5675 118.485 61.0445 118.1 61.4957 117.684C60.7598 117.555 60.0054 117.47 59.2621 117.434ZM58.3025 118.862C58.2156 119.535 58.1343 120.195 58.0954 120.877C58.3635 120.604 58.6242 120.323 58.8849 120.042C58.6963 119.644 58.5059 119.248 58.3025 118.862ZM60.8559 120.356C61.1444 120.831 61.4291 121.306 61.725 121.785C61.8914 120.82 61.8784 119.829 61.9283 118.858C61.5586 119.348 61.2054 119.851 60.8559 120.356ZM58.4523 122.617C58.9848 123.392 59.8926 123.322 60.7339 123.244C60.4122 122.647 60.0572 122.057 59.7244 121.476C59.2991 121.855 58.872 122.234 58.4523 122.617Z" fill="#010101"/>
<path d="M63.4316 141.54C67.7712 135.66 72.2309 129.849 77.3082 124.581C80.9451 129.398 84.4083 134.381 87.191 139.748C88.4964 141.738 89.4911 143.912 90.8353 145.883C92.8914 149.039 94.4796 152.462 95.9644 155.916C97.3807 159.355 98.7397 162.853 99.3665 166.534C99.9452 170.449 100.413 174.402 100.138 178.366C99.9212 180.884 100.398 183.571 99.3794 185.965C97.266 185.02 95.4726 183.486 94.0729 181.659C90.4914 177.216 86.8378 172.825 83.4986 168.195C79.5917 163.263 75.7403 158.282 72.1107 153.144C70.7647 151.417 69.23 149.847 67.9228 148.091C66.2476 146.031 64.8757 143.759 63.4316 141.54ZM77.556 127.774C73.3847 132.326 69.6812 137.271 65.7909 142.056C66.5379 143.221 67.2979 144.374 68.104 145.502C69.9234 148.143 72.3419 150.3 74.1723 152.937C75.9307 155.426 77.6743 157.927 79.49 160.377C82.6037 164.247 85.6508 168.174 88.55 172.211C90.4507 174.609 92.5549 176.835 94.4815 179.216C95.6482 180.662 97.0109 181.929 98.4106 183.147C98.7156 178.564 98.7804 173.932 98.0463 169.384C97.5434 165.24 96.1881 161.274 94.6313 157.419C93.2538 153.412 91.0332 149.775 88.9216 146.125C86.6307 141.801 83.6742 137.877 81.2983 133.602C80.1834 131.578 78.9335 129.629 77.556 127.774Z" fill="#010101"/>
<path d="M41.2272 186.695C45.2524 187.095 49.0428 188.698 52.5596 190.626C55.444 192.178 57.9235 194.348 60.6803 196.103C64.7258 193.725 68.4182 190.687 72.8317 188.981C74.4588 188.272 76.1618 187.707 77.9275 187.479C79.0961 187.052 79.6896 188.26 80.2572 189.005C82.8144 193.17 82.953 198.298 82.7848 203.035C82.4871 207.088 81.8233 211.161 80.4532 214.999C75.7901 214.517 71.4469 212.501 67.479 210.103C65.5949 209.042 64.1138 207.326 62.0319 206.625C61.1407 206.098 60.0498 206.736 59.1678 206.195C58.2137 205.583 57.3207 204.852 56.5626 204.015C55.3349 202.602 55.4033 200.42 56.2132 198.814C56.6957 197.556 57.6905 196.626 58.4726 195.563C57.4852 195.866 56.7346 196.628 55.8045 197.037C54.2033 196.931 52.6705 196.31 51.0748 196.138C52.3081 197.085 53.8576 197.451 55.2998 197.967C55.0853 198.453 54.8689 198.939 54.66 199.431C54.0258 199.522 53.4101 199.655 52.7907 199.803C53.2862 200.03 53.7947 200.23 54.3106 200.411C54.3235 200.705 54.3512 201.291 54.3642 201.585C52.5023 201.707 50.6403 201.955 48.8598 202.532C50.7568 203.035 52.7593 202.872 54.6951 202.72C55.0594 203.689 55.3183 204.71 54.6193 205.607C55.1463 205.568 55.7343 205.329 56.2261 205.627C57.0193 206.139 57.8939 206.47 58.8313 206.594C54.599 210.057 49.7232 212.99 44.3205 214.13C43.7178 214.199 42.993 214.448 42.4864 214.018C40.8907 212.415 40.1215 210.216 39.528 208.088C38.6091 203.841 38.646 199.426 39.234 195.138C39.7073 192.288 40.1234 189.382 41.2272 186.695ZM63.304 195.62C64.2433 198.263 65.6411 201.042 64.809 203.911C64.6297 204.819 63.8661 205.42 63.3946 206.174C64.0879 206.087 64.761 205.904 65.4284 205.703C67.7045 206.969 70.0453 208.535 72.7467 208.596C70.5205 207.348 68.1224 206.402 66.0515 204.887C66.2845 204.068 66.4287 203.223 66.5859 202.389C68.091 202.635 69.6497 202.722 71.1288 202.264C69.7403 201.835 68.274 201.702 66.9002 201.245C66.3862 201.108 66.229 200.463 66.0183 200.082C67.0204 199.723 68.0374 199.357 68.923 198.751C67.8765 198.699 66.8522 198.985 65.8519 199.254C65.2509 197.887 64.7184 196.36 63.304 195.62ZM59.4304 201.936C59.9056 201.051 60.0442 200.038 60.2938 199.08C60.4917 198.135 60.8042 197.198 60.7173 196.223C58.774 197.395 59.1456 200.045 59.4304 201.936ZM61.4901 201.034C61.4679 202.48 61.431 203.926 61.37 205.374C61.9043 204.884 62.6494 204.412 62.6864 203.615C62.6698 202.622 62.4146 201.537 61.4901 201.034Z" fill="#010101"/>
</svg>
