<svg width="335" height="183" viewBox="0 0 335 183" fill="none" xmlns="http://www.w3.org/2000/svg">
<g clip-path="url(#clip0_388_1229)">
<path d="M112.05 12.7052C111.017 15.4481 109.28 17.87 107.014 19.7266C101.74 24.7661 95.4488 28.6169 88.5635 31.0201C84.4343 32.3941 80.0921 33.0149 75.7436 32.8528C72.2417 32.7042 68.5788 32.5432 64.916 32.0974C64.6995 32.0881 64.4848 32.14 64.2965 32.2474C64.1083 32.3547 63.9541 32.5131 63.8518 32.7042C62.7115 35.5811 61.7931 38.5411 61.1047 41.5583C60.425 45.1786 60.1181 48.8592 60.189 52.5422C60.5494 58.352 61.2144 64.1388 62.1813 69.8788C63.2455 75.216 63.8518 79.9464 64.6561 85.296C65.2905 90.5626 65.5427 95.8683 65.411 101.171C65.208 105.171 64.6991 109.15 63.8889 113.072C62.8703 118.392 61.0732 123.533 58.5556 128.328C56.8258 131.755 54.6083 134.912 51.9724 137.702C49.9046 140.119 47.5482 142.274 44.9561 144.117C41.2633 146.855 36.9771 148.684 32.4456 149.454C27.4991 150.557 22.3505 150.348 17.5096 148.847C12.1283 147.225 7.45043 143.836 4.23191 139.225C2.28902 136.254 0.974865 132.915 0.370452 129.416C-0.233961 125.917 -0.115827 122.331 0.717573 118.879C1.48468 115.331 2.822 111.931 4.67738 108.812C8.42791 102.229 13.9162 96.8048 20.5414 93.1346C23.5624 91.4562 26.8765 90.3717 30.3048 89.9397C30.4533 89.7787 30.9111 89.7787 31.369 89.7787L40.9715 88.4042C41.1324 88.4042 41.1324 88.4042 41.1324 88.5652C41.1324 88.7262 40.823 88.8624 40.0682 89.0234C38.5338 89.3205 30.6018 91.0047 30.3048 91.0047C28.9488 91.2273 27.6182 91.5841 26.3326 92.0696C22.3894 93.3098 18.7885 95.4507 15.8144 98.3232C11.2079 102.15 7.4987 106.944 4.94962 112.366C2.66721 117.216 1.76793 122.603 2.351 127.932C2.83897 132.667 4.75526 137.141 7.84523 140.761C10.3585 143.502 13.4955 145.596 16.9899 146.866C19.991 148.038 23.1951 148.601 26.4157 148.523C29.6364 148.444 32.8092 147.725 35.7495 146.407C40.3559 144.441 44.4715 141.481 47.8022 137.739C51.0082 134.201 53.7259 130.248 55.8827 125.987C58.0041 121.259 59.5416 116.29 60.4612 111.189C61.3671 106.617 61.7243 101.953 61.5254 97.2954C61.0676 91.1904 60.4612 85.0855 59.397 78.9805L58.0235 70.3122C57.4171 66.7954 56.786 63.5881 56.3405 60.0836C55.2216 53.7118 55.3266 47.1849 56.6499 40.8524C57.3079 37.9058 58.1848 35.0125 59.2733 32.1965C59.4216 32.0207 59.5274 31.8131 59.5826 31.5897C58.9763 31.4288 58.3452 31.4288 57.8997 31.2802C53.5879 30.8715 49.245 30.9213 44.9437 31.4287C40.8057 31.7475 36.7146 32.5157 32.7425 33.7197C29.8744 34.5814 27.1508 35.8669 24.6621 37.5337C24.0433 38.1405 23.5855 38.772 22.9791 39.3664C22.6821 39.676 22.5213 39.8246 22.3728 39.676C22.2243 39.5274 22.3728 39.0568 22.8306 38.4377C23.9933 36.9859 25.5046 35.8526 27.2236 35.1437C31.8794 32.8455 36.9082 31.3987 42.0728 30.8715C46.0194 30.4161 49.9948 30.2629 53.9647 30.4133C55.7961 30.4133 57.677 30.5619 59.4589 30.7229C59.6074 30.8715 59.9167 30.7229 60.0652 30.4133C62.2238 25.7507 64.928 21.361 68.121 17.3366C72.8756 11.3342 78.993 6.55391 85.9649 3.39302C89.3454 1.91583 92.8884 0.843436 96.5203 0.198137C102.707 -0.569626 109.328 0.804917 112.223 6.30309C113.008 8.37713 112.946 10.6767 112.05 12.7052ZM109.909 6.60029C107.929 3.09582 104.267 2.03086 100.455 2.03086C98.0583 1.98195 95.6748 2.40262 93.439 3.26919C85.8926 5.84857 79.1608 10.3767 73.9246 16.3955C71.0909 19.5271 68.6781 23.0156 66.7474 26.7726C65.9926 28.1472 65.2254 29.6703 64.4582 31.3545H65.2254C67.8056 31.7104 70.4047 31.913 73.0089 31.9612C77.1069 32.3105 81.2344 31.9502 85.21 30.8963C89.3137 29.7707 93.2201 28.0208 96.7925 25.7077C100.384 23.4477 103.666 20.7294 106.556 17.6214C107.933 16.1295 109.065 14.4284 109.909 12.5814C110.677 10.5753 110.974 8.28441 109.909 6.60029Z" fill="#1D1D1B"/>
<path d="M94.0453 92.8741C93.8968 93.6295 93.736 94.1125 93.5875 94.8555C94.6961 94.2609 95.6894 93.4725 96.5202 92.5274C99.2159 89.508 101.615 86.2361 103.685 82.757C104.762 81.3825 105.368 80.1689 106.432 78.7944C108.115 76.1939 111.468 71.4635 113.151 70.1261C113.771 69.6445 114.504 69.3291 115.28 69.2097C115.562 69.1603 115.853 69.1741 116.129 69.2502C116.406 69.3263 116.662 69.4628 116.88 69.6498C117.098 69.8369 117.271 70.0699 117.388 70.3321C117.505 70.5943 117.563 70.8792 117.557 71.1663C117.607 72.5973 117.504 74.0297 117.247 75.4385C116.183 79.5497 114.97 83.3762 113.535 87.4874C112.16 91.1855 110.987 94.9556 110.021 98.781C109.872 99.8583 109.872 100.775 109.711 101.84V102.446C110.353 102.272 110.969 102.014 111.543 101.679C113.676 100.559 115.588 99.0614 117.185 97.2578C120.36 94.0263 123.223 90.502 125.736 86.732C126.343 85.9643 129.09 81.7787 131.676 77.7294C133.194 75.4426 134.873 72.8463 136.712 69.9403C136.861 70.0889 137.022 70.0889 137.17 70.2499C137.249 70.4162 137.29 70.5981 137.29 70.7824C137.29 70.9666 137.249 71.1485 137.17 71.3149C136.403 72.0826 128.632 85.5061 127.407 87.1902C125.125 90.7351 122.577 94.1007 119.784 97.2578C117.945 99.2891 115.914 101.139 113.721 102.781C112.153 103.827 110.236 104.21 108.387 103.846C107.904 103.839 107.441 103.644 107.099 103.302C106.757 102.96 106.562 102.497 106.556 102.013C106.451 100.588 106.501 99.1553 106.704 97.7408C107.187 94.459 108.017 91.2378 109.179 88.1313C111.654 82.0264 113.151 78.2247 115.366 71.9464C115.366 71.4882 115.824 70.4233 115.366 70.4233C114.682 70.8302 114.068 71.3444 113.547 71.9464C111.716 74.2373 111.407 75.0051 109.724 77.296C106.828 81.5682 104.081 85.8404 101.185 90.1127C100.763 90.7968 100.304 91.4582 99.8118 92.094C99.354 92.5522 98.7476 93.4685 98.1413 94.0753C97.741 94.4466 97.384 94.8621 97.0771 95.3137C96.4376 96.0728 95.5948 96.6334 94.6478 96.9296C93.7008 97.2257 92.6889 97.2451 91.7313 96.9854C90.3578 96.5272 89.8999 95.3137 89.8999 93.6295C89.9372 92.6577 90.0406 91.6896 90.2093 90.7318C91.4467 85.8528 94.7878 74.1011 96.0005 70.7452C97.2379 67.8352 99.7128 61.272 100.95 58.0771C102.939 53.0384 105.215 48.1182 107.769 43.341C110.058 39.0564 112.496 34.7842 114.946 30.512C117.493 26.2232 120.29 22.0883 123.323 18.1287C125.798 15.231 128.05 12.3333 130.958 9.46042C132.942 7.53612 135.143 5.84895 137.517 4.43281C138.456 3.95226 139.509 3.73813 140.561 3.81364C141.173 3.88913 141.739 4.1793 142.158 4.63268C142.577 5.08605 142.822 5.67332 142.85 6.2903C142.912 7.91654 142.598 9.53516 141.934 11.0207C140.523 15.096 138.628 18.9873 136.292 22.6115C134.46 25.5215 132.579 28.5678 130.649 31.4655C128.36 34.6728 125.922 37.88 123.633 41.0873C121.343 44.2946 118.794 47.3532 116.319 50.3995C112.597 55.19 108.576 59.7396 104.279 64.0211C103.194 65.1032 102.35 66.4031 101.804 67.8352C100.121 72.5656 98.7476 77.3084 97.0771 82.1874C95.8767 85.8157 95.1095 89.0229 94.0453 92.8741ZM103.648 63.4143L105.021 62.0398C105.74 61.2594 106.405 60.432 107.014 59.5631C110.206 55.7491 113.572 51.935 116.616 48.121C119.512 44.6041 121.95 41.2483 124.548 37.7438C126.838 34.6851 128.817 31.4779 131.107 28.2706C132.938 25.3729 134.609 22.6238 136.292 19.6023C137.975 16.6661 139.304 13.5401 140.251 10.2901C140.639 9.19432 140.913 8.06145 141.068 6.90946C141.217 6.1417 141.068 5.67114 140.61 5.38632C139.912 5.46898 139.264 5.79309 138.779 6.30268C136.796 7.8647 134.958 9.60116 133.285 11.4913C130.682 14.4618 128.24 17.5704 125.971 20.8035C123.71 23.7474 121.67 26.856 119.871 30.1033C117.891 33.6202 116.158 36.6665 114.376 40.1833C110.825 47.056 107.472 53.9164 104.564 61.0863C104.106 61.6931 104.106 62.7704 103.648 63.3772V63.4143Z" fill="#1D1D1B"/>
<path d="M166.027 70.3986C166.176 70.5472 166.027 70.8568 165.73 71.1664C164.963 71.9218 158.553 76.8132 151.846 77.2713C151.697 77.2713 151.697 77.2713 151.697 77.4199C150.64 79.8036 149.399 82.1014 147.985 84.2926C146.748 86.113 145.51 87.6485 145.51 87.7971C142.602 91.5121 136.514 97.2579 132.393 93.5925H132.233V93.4439C130.562 92.0693 130.562 89.0231 130.562 86.4226C130.832 83.0852 131.548 79.7991 132.69 76.6522C132.922 76.1553 133.129 75.647 133.309 75.129C134.243 73.2873 135.367 71.5483 136.663 69.9404L136.811 69.7918V69.6309C136.96 69.6309 136.96 69.6309 136.96 69.4823C137.405 69.2041 137.915 69.0454 138.439 69.0215C138.964 68.9977 139.485 69.1094 139.954 69.346C140.412 69.346 140.87 69.8042 141.328 70.2624C139.038 72.8505 138.271 75.9092 137.207 78.9307C136.205 81.6476 135.487 84.4613 135.066 87.3265C135.066 87.7847 134.918 88.5649 134.918 89.6175C135.066 90.992 135.524 92.8247 138.123 91.1406C138.581 90.992 138.878 90.6824 139.36 90.5338V90.3976C140.358 89.6682 141.279 88.8383 142.107 87.9209C144.899 84.7127 147.212 81.1174 148.975 77.2466C148.975 77.0856 148.975 77.0856 149.124 76.937V76.776C148.222 76.3332 147.358 75.8197 146.537 75.2405C145.586 74.5704 144.811 73.6797 144.279 72.6446C143.747 71.6094 143.473 70.4606 143.481 69.2965C143.364 67.926 143.63 66.5499 144.248 65.3215C144.732 64.6716 145.332 64.1173 146.018 63.6869C146.61 63.258 147.317 63.0139 148.047 62.9853C148.778 62.9566 149.501 63.1447 150.126 63.5259H150.287C151.472 64.288 152.379 65.413 152.873 66.7332C154.111 69.9404 152.873 74.0641 152.415 75.2776C152.426 75.3602 152.419 75.4443 152.393 75.5236C152.367 75.6029 152.324 75.6754 152.267 75.7358C153.823 75.527 155.356 75.1704 156.845 74.6708C160.079 73.6967 163.086 72.0887 165.693 69.9404C165.879 70.089 165.879 70.25 166.027 70.3986ZM151.537 68.4173C151.542 67.3792 151.222 66.3656 150.621 65.5196C148.641 63.043 146.81 65.6682 146.661 65.8168C146.118 66.7053 145.805 67.7155 145.751 68.7557C145.697 69.7959 145.904 70.8331 146.352 71.7732C147.006 73.4151 148.264 74.7443 149.866 75.4881C150.944 73.2856 151.514 70.8695 151.537 68.4173Z" fill="#1D1D1B"/>
<path d="M217.579 70.3986C217.728 70.8568 217.728 71.0054 217.418 71.1664C214.669 73.5096 211.263 74.9456 207.667 75.2777C204.611 75.4386 202.94 74.8195 202.322 74.3613L202.173 74.2127C199.575 77.5686 197.137 80.6272 194.748 83.5249C190.628 88.4039 185.752 93.9021 182.238 95.5862C181.791 95.9634 181.226 96.1703 180.642 96.1703C180.057 96.1703 179.492 95.9634 179.045 95.5862C178.483 94.8587 178.105 94.005 177.946 93.0989C177.786 92.1928 177.849 91.2615 178.13 90.3852C178.587 88.4039 179.367 85.9644 179.8 84.2927L181.483 80.0081C179.491 82.6086 177.362 85.1967 175.383 87.6485C171.868 91.7598 167.451 96.7998 163.788 99.4003C162.875 100.127 161.846 100.692 160.744 101.072C160.336 101.181 159.909 101.202 159.493 101.134C159.076 101.065 158.679 100.909 158.328 100.674C157.976 100.44 157.679 100.133 157.455 99.7747C157.232 99.4162 157.087 99.0142 157.031 98.5954C156.672 96.3612 156.773 94.0772 157.328 91.8836C158.969 86.0251 160.978 80.2761 163.342 74.6709C164.406 72.38 165.631 69.3337 167.314 67.501C167.456 67.2661 167.655 67.072 167.894 66.9374C168.132 66.8029 168.402 66.7325 168.676 66.7332C169.752 66.8818 170.359 67.0428 170.816 67.7982C170.965 68.2563 171.126 68.5659 170.965 68.7145C169.443 71.9218 159.828 91.6112 161.065 99.0907C161.921 98.7451 162.696 98.2266 163.342 97.5675C166.241 95.3038 168.899 92.7476 171.274 89.9394C174.776 85.6548 178.142 81.3826 181.174 77.2714C182.238 75.8968 182.696 74.6709 183.772 73.4449C183.772 72.9991 183.921 72.8382 184.23 72.8382H184.985C185.478 72.8504 185.957 73.01 186.359 73.2963C187.126 73.9031 187.274 74.9805 186.507 76.355C185.27 79.2527 180.258 91.6112 181.174 94.6699L181.483 94.3603C181.883 94.2504 182.249 94.0418 182.547 93.7535C185.146 91.9208 191.395 86.5712 200.998 73.2963C200.761 72.9623 200.558 72.6056 200.391 72.2314C199.929 71.1047 199.929 69.8412 200.391 68.7145C200.625 68.2127 200.934 67.7493 201.307 67.34C201.615 66.9636 202.057 66.722 202.54 66.6665C203.023 66.611 203.508 66.746 203.893 67.0428C204.033 67.1127 204.15 67.2208 204.231 67.3544C204.312 67.4881 204.354 67.6419 204.351 67.7982C204.512 67.7982 204.512 67.7982 204.512 67.9591C204.809 69.0943 204.644 70.3011 204.054 71.315C203.745 71.7732 203.435 72.38 202.99 72.9991C203.719 73.5447 204.567 73.9096 205.465 74.0641C208.051 74.5223 212.629 74.2127 217.357 69.9405C217.418 70.0891 217.418 70.25 217.579 70.3986ZM202.73 70.5472C203.188 69.7919 203.336 68.8755 202.891 68.4173C202.445 67.9591 202.124 69.1727 201.975 69.1727C201.814 69.6309 201.814 69.9405 201.666 70.411V71.0178C201.65 71.401 201.758 71.779 201.975 72.0952C202.271 71.6067 202.539 71.1024 202.779 70.5844L202.73 70.5472Z" fill="#1D1D1B"/>
<path d="M253.019 121.764C251.955 124.043 250.73 125.876 249.517 128.167C245.351 135.843 240.766 143.284 235.782 150.456C232.62 155.19 229.103 159.678 225.263 163.88C221.597 168.027 217.137 171.395 212.147 173.787C208.414 175.438 204.282 175.967 200.255 175.31C197.982 175.002 195.882 173.927 194.303 172.263C193.028 170.83 192.138 169.096 191.716 167.223C191.125 164.515 191.071 161.718 191.556 158.989C191.986 154.698 192.814 150.457 194.03 146.32C195.268 142.197 196.505 138.383 197.743 134.569C200.341 127.399 203.386 120.378 206.591 113.517C209.189 108.18 211.627 102.682 214.523 97.3446C218.024 90.6205 221.39 84.0574 224.892 77.3457C227.491 72.4666 230.077 67.439 232.676 62.4857C234.863 58.0359 236.748 53.4437 238.318 48.7403C238.764 47.5631 239.068 46.3366 239.222 45.0872C239.34 44.6318 239.355 44.1559 239.267 43.6938C239.179 43.2317 238.99 42.7949 238.713 42.4147C238.436 42.0346 238.078 41.7206 237.666 41.4954C237.253 41.2701 236.796 41.1393 236.326 41.1122C235.113 40.7568 233.812 40.8672 232.676 41.4218C229.272 42.497 226.181 44.3839 223.667 46.92C219.535 50.828 216.036 55.3569 213.297 60.3434C211.527 63.4724 210.554 66.9897 210.464 70.5844C210.47 71.6165 210.625 72.6423 210.922 73.6307C211.031 74.1178 211.302 74.5539 211.689 74.869C211.477 74.9623 211.241 74.9825 211.017 74.9265C210.793 74.8704 210.594 74.7413 210.451 74.5594C209.676 73.3341 209.303 71.8962 209.387 70.4482C209.53 67.7635 210.15 65.1259 211.219 62.6591C212.628 58.9455 214.639 55.4897 217.171 52.4305C219.243 49.6675 221.65 47.1719 224.335 45.0006C226.935 42.708 230.087 41.1331 233.48 40.4311C234.786 40.1232 236.146 40.1232 237.452 40.4311C240.496 41.3475 241.721 43.4774 241.264 46.6228C240.691 49.9144 239.77 53.1357 238.516 56.2322C236.424 62.3664 233.876 68.3353 230.894 74.0889C226.773 82.0265 222.962 89.9642 219.151 97.9019C216.106 104.155 213.198 110.421 210.303 116.675C208.323 120.799 206.591 124.452 204.969 128.575C202.129 135.329 199.735 142.262 197.805 149.33C196.618 153.146 195.9 157.092 195.664 161.081C195.353 163.703 195.614 166.36 196.431 168.87C196.864 170.221 197.72 171.395 198.873 172.22C200.025 173.046 201.412 173.478 202.829 173.452C205.686 173.548 208.522 172.917 211.07 171.619C215.776 169.38 220.016 166.271 223.568 162.456C227.083 158.332 230.436 154.06 233.468 149.788C237.041 144.966 240.303 139.92 243.231 134.68C245.706 130.557 248.119 126.594 250.396 122.47C253.601 116.985 256.657 111.325 259.701 105.84C261.075 103.363 262.176 100.8 263.216 98.4096C265.505 93.5306 267.633 88.7878 269.923 84.0574C271.903 79.6366 273.895 75.2157 276.11 70.7825C278.675 65.2378 281.632 59.8829 284.958 54.7586C285.762 53.232 286.733 51.7992 287.853 50.4863C288.014 50.0282 288.769 50.0282 289.227 50.1768C289.685 50.3254 289.846 50.7959 289.536 51.2541C287.853 54.1518 286.331 56.7399 284.958 59.6376C281.753 65.9035 279.006 72.4666 276.11 79.0298C274.439 83.141 272.608 86.9675 270.925 91.0787C268.636 96.4283 266.656 101.617 264.367 106.954C261.78 113.666 259.343 120.39 256.435 127.102C254.616 131.981 252.722 136.872 251.101 141.751C249.016 147.047 247.385 152.512 246.226 158.085C245.447 161.38 245.188 164.777 245.459 168.152C245.568 169.151 245.827 170.128 246.226 171.05C246.39 171.423 246.674 171.732 247.032 171.926C247.39 172.121 247.803 172.192 248.206 172.127C250.353 171.767 252.389 170.92 254.158 169.651C257.054 167.67 259.626 165.251 261.78 162.481C264.664 159.123 267.216 155.494 269.403 151.645C271.692 147.522 273.833 143.559 275.813 139.435C279.463 132.414 287.395 117.145 291.058 110.137C291.825 108.898 292.58 107.536 293.533 106.162C293.694 106.013 294.3 105.555 294.3 105.703C294.758 106.162 294.152 106.013 293.991 106.471L288.051 118.371C285.576 123.721 278.436 136.847 275.999 142.184C273.648 147.475 270.893 152.575 267.757 157.441C264.903 161.987 261.411 166.099 257.387 169.651C255.905 171.335 254.019 172.613 251.906 173.366C249.856 174.125 247.632 174.284 245.496 173.824C244.762 173.609 244.083 173.24 243.504 172.74C242.925 172.24 242.461 171.621 242.142 170.926C241.224 169.24 240.752 167.348 240.769 165.428C240.463 161.157 240.928 156.866 242.142 152.76C243.492 147.489 245.119 142.293 247.018 137.194C248.701 132.773 250.532 128.352 252.203 123.919C252.66 123.151 252.66 122.545 253.118 121.789L253.019 121.764Z" fill="#1D1D1B"/>
<path d="M334.913 106.038C335.062 106.186 335.062 106.496 334.604 106.644C334.146 106.793 331.708 108.18 329.271 109.394C327.588 110.471 326.066 110.917 324.395 111.994C324.234 111.994 324.086 112.143 323.937 112.143C323.789 112.143 323.776 112.143 323.776 112.291C320.274 113.975 317.218 115.498 313.716 117.183C313.438 117.497 313.064 117.711 312.652 117.789C312.147 118.787 311.585 119.754 310.969 120.687C309.714 122.932 308.286 125.077 306.7 127.102C306.093 127.708 305.636 128.476 304.868 129.232C302.312 131.988 299.324 134.31 296.021 136.104C295.643 136.339 295.222 136.495 294.783 136.562L294.622 136.711H294.511C291.615 137.479 290.539 136.414 290.093 135.956V135.795C288.856 134.123 290.242 131.832 290.39 131.374C293.286 126.495 302.443 121.306 305.945 119.313C306.294 119.138 306.654 118.985 307.021 118.854C307.17 118.706 307.318 118.706 307.479 118.557C307.752 118.366 307.963 118.099 308.086 117.789C309.844 114.851 311.276 111.728 312.355 108.477C312.736 107.667 312.943 106.785 312.961 105.889V105.431L312.813 105.27V104.663C312.664 104.205 312.503 104.056 312.206 104.056V103.908C311.593 103.812 310.965 103.863 310.375 104.056C308.208 104.89 306.193 106.074 304.41 107.561C301.894 109.817 299.594 112.304 297.543 114.991C294.956 118.508 292.816 122.012 290.526 125.826C288.292 129.971 286.357 134.271 284.735 138.692C282.446 144.636 280.466 150.444 278.177 156.388C275.281 163.818 272.695 171.347 269.787 178.827C269.329 180.065 269.032 181.117 268.549 182.182C268.442 182.481 268.225 182.727 267.942 182.87C267.658 183.013 267.331 183.042 267.027 182.95C266.564 182.976 266.099 182.922 265.654 182.789C265.654 182.331 265.654 181.873 265.802 181.724C267.176 177.452 268.389 173.056 269.762 168.747C271.594 163.409 273.276 158.679 275.108 153.342C277.088 147.695 278.919 142.197 281.208 136.55L288.546 116.402C290.229 112.588 291.603 108.626 293.583 105.109L294.041 104.193C294.163 104.012 294.331 103.867 294.527 103.772C294.723 103.678 294.94 103.636 295.158 103.653C295.375 103.669 295.584 103.742 295.764 103.865C295.943 103.989 296.088 104.157 296.181 104.354C296.478 104.651 296.478 104.96 296.33 105.109C295.093 108.626 294.041 112.13 292.816 115.647C292.061 117.628 290.341 122.359 290.341 122.668C290.789 122.027 291.202 121.361 291.578 120.675C294.437 116.079 297.753 111.784 301.478 107.858C303.595 105.648 306.208 103.976 309.1 102.979C309.982 102.682 310.905 102.532 311.835 102.533H312.441C313.815 102.533 318.542 103.772 316.154 110.471C315.547 111.709 314.78 113.369 313.679 115.659C313.762 115.67 313.847 115.661 313.927 115.633C314.006 115.605 314.078 115.559 314.137 115.498C317.181 113.827 320.237 112.749 323.442 111.078C326.647 109.406 329.84 108.019 333.342 106.347C333.342 106.186 333.49 106.186 333.639 106.186L334.555 105.728L334.913 106.038ZM305.933 121.356C305.784 121.653 297.543 126.383 294.189 129.9C293.476 130.515 292.859 131.233 292.358 132.03C291.9 132.649 291.454 133.566 291.9 134.024C292.345 134.482 293.273 134.172 293.892 133.714C294.35 133.566 294.499 133.256 294.956 133.108C298.518 130.369 301.698 127.167 304.41 123.585C304.868 122.978 305.326 122.062 305.933 121.356Z" fill="#1D1D1B"/>
<path d="M75.0259 115.561L80.3098 114.855C83.4281 114.533 86.497 114.013 89.6525 113.617C96.0995 112.626 102.324 111.858 108.919 111.14C113.622 110.707 118.175 110.125 123.026 109.84C128.817 109.357 134.312 108.862 140.239 108.676C148.196 108.218 156.078 107.982 163.961 107.896C168.911 107.759 173.922 107.896 178.983 107.982C184.762 108.218 190.467 108.676 196.233 108.911C197.248 108.911 197.966 109.233 198.98 109.245C198.906 109.171 199.055 109.171 199.339 109.183C199.624 109.196 199.636 109.184 199.698 109.258C199.841 109.428 199.929 109.637 199.951 109.858C199.973 110.079 199.928 110.301 199.822 110.496C199.748 110.719 199.525 110.781 199.24 110.917C194.612 111.289 190.207 110.707 185.628 110.558C181.582 110.496 177.461 110.36 173.415 110.298C169.368 110.236 165.545 110.298 161.573 110.298C156.363 110.298 151.376 110.298 146.03 110.558C140.685 110.818 135.116 110.892 129.461 111.375C124.115 111.586 118.831 112.155 113.547 112.614C107.83 113.171 102.039 113.852 96.3223 114.36C92.6099 114.731 88.7986 115.251 85.0368 115.598C81.9185 115.908 78.7382 116.155 75.558 116.391C74.5433 116.391 74.5433 116.391 74.0483 115.709C74.5186 115.771 74.5928 115.548 75.0259 115.561Z" fill="#1D1D1B"/>
</g>
<defs>
<clipPath id="clip0_388_1229">
<rect width="335" height="183" fill="white"/>
</clipPath>
</defs>
</svg>
