<svg width="47" height="47" viewBox="0 0 47 47" fill="none" xmlns="http://www.w3.org/2000/svg">
<circle cx="23.3178" cy="23.5301" r="22.8079" fill="#212529"/>
<path d="M32.52 18.8529C31.8852 19.1342 31.204 19.325 30.4883 19.4102C31.2191 18.9726 31.7785 18.2785 32.0436 17.454C31.3581 17.8592 30.6015 18.1535 29.7953 18.313C29.1497 17.6243 28.2315 17.1953 27.2129 17.1953C25.2589 17.1953 23.6746 18.7797 23.6746 20.7326C23.6746 21.0096 23.7058 21.2801 23.7662 21.5388C20.826 21.3911 18.2189 19.9825 16.474 17.842C16.1689 18.3636 15.9954 18.9715 15.9954 19.6203C15.9954 20.8479 16.6205 21.9311 17.569 22.5648C16.9891 22.5454 16.4438 22.3859 15.9663 22.1208V22.1649C15.9663 23.8786 17.1864 25.3088 18.8041 25.6343C18.5077 25.7141 18.1952 25.7583 17.8719 25.7583C17.6434 25.7583 17.4224 25.7356 17.2058 25.6925C17.6563 27.099 18.9626 28.1218 20.5103 28.1499C19.2999 29.0983 17.7738 29.662 16.1162 29.662C15.8306 29.662 15.5492 29.6448 15.2723 29.6135C16.8383 30.6191 18.6975 31.2054 20.6957 31.2054C27.2044 31.2054 30.7621 25.8143 30.7621 21.1389L30.7503 20.6809C31.4454 20.1851 32.0468 19.5621 32.52 18.8529Z" fill="white"/>
</svg>
